<?xml version="1.0" encoding="utf-8"?>
<!-- Generator: Adobe Illustrator 26.0.3, SVG Export Plug-In . SVG Version: 6.00 Build 0)  -->
<svg version="1.1" id="Capa_1" xmlns="http://www.w3.org/2000/svg" xmlns:xlink="http://www.w3.org/1999/xlink" x="0px" y="0px"
	 viewBox="0 0 595.28 841.89" style="enable-background:new 0 0 595.28 841.89;" xml:space="preserve">
<style type="text/css">
	.st0{fill:#7B6B59;}
	.st1{fill:#836042;}
	.st2{fill:#458489;}
	.st3{fill:#C26B36;}
	.st4{fill:#F1E474;}
	.st5{fill:#FFFFFF;}
	.st6{fill:#81AA4F;}
	.st7{fill:#5A2D17;}
	.st8{fill:#FCE8E1;}
	.st9{fill:#AB4F79;}
	.st10{fill:#D5D8E2;}
</style>
<g>
	<ellipse class="st0" cx="300.77" cy="719.13" rx="232.37" ry="13.32"/>
	<path class="st1" d="M498.04,191.43c-0.23-1.39-6.35-21.7-19.62-40.63c0,0-17.2-21.35-17.08-21.7
		c0.12-0.35-20.89-30.24-26.66-32.67l-11.31-8.31c0,0-2.31,18.82,4.73,35.32c0,0-16.97-15.81-24.59-9.12c0,0-3.58,2.77-3.35,8.2
		s0.12,12.58,0.12,12.58s-30.36-6.23-47.21-7.27s-36.94-2.54-36.94-2.54s-19.16-13.27-20.66-10.73c-0.46,0.12-10.27,5.77-11.43,8.2
		s-24.59-4.39-49.75,21.47L197,158.88c0,0-6.93,18.01-14.78,25.05c-7.85,7.04-19.39,34.63-1.5,50.67c0,0,117.74,129.4,174.07,118.32
		s32.78-90.04,32.78-90.04s15.24-23.78,12.7-33.94l15.7-6.69c0,0-2.31,4.62,0.23,5.31s20.08,8.08,51.02-11.08
		S498.04,191.43,498.04,191.43z"/>
	<path class="st2" d="M499.77,192.7c0,0-17.55,20.47-49.56,33.4c0,0-28.78,4.46-34.17,2.46l-0.31,4.77l4.31,2.92l8.46,18.78
		l-5.54-0.15l-1.85,2.77l-20.93-0.15l-6-2.31c0,0-5.69,0.31-6.16,5.39c-0.46,5.08-2.92,40.02-10.31,44.79
		c0,0-0.15,24.47-19.08,37.71c-0.46,0-2.62,0.31-2.62,0.31s-6.93-18.78-33.86-31.4l-4.62-25.09l-10-4.77
		c0,0-33.24-14.16-52.64-18.78s-75.11-25.47-74.18-28.74l-8.93,4.42l-1.23,3.08c0,0-61.1,19.7-114.97,108.04
		c0,0,5.54,20.93,23.09,47.1c0,0,27.09,31.86,28.47,31.7c1.39-0.15-2.31,5.85-2.31,5.85l3.85,2.92l-0.46,9.23l11.85,5.85
		c0,0-6.62,23.55,1.08,65.72s39.4,107.73,39.4,107.73l3.77,6.35l0.81,6.12c0,0,0.58,3.23,1.96,7.39c1.39,4.16,6.58,9,6.58,9
		s7.73,23.66,85.3,3.69l6.69-5.08c0,0-2.89-4.62-2.89-4.96c0-0.35,0.69-5.31,0.69-5.66c0-0.35,1.15-3.12,1.15-3.12
		s4.96-5.31,5.89-15.12c0,0,19.93-26.63,26.39-30.94c0,0,16.01,14.01,34.32,52.33c0,0-2,7.23-1.54,7.39
		c0.46,0.15,23.7,13.57,56.95,1.23c0.92-0.62,26.47-13.39,28.01-20.47c1.54-7.08,10-23.09,13.24-41.25
		c3.23-18.16,13.08-64.49,9.7-71.26l4.31-7.54l-4.16-5.69c0,0,5.69-32.17,1.69-36.94c0,0,15.85-12,16.16-21.39l-1.39-4.46
		l-7.08-5.08l-0.77-8l-7.39-2.15c0,0-5.39-44.63-7.08-52.33s-10.47-35.4-10.47-35.4s68.95,4.92,114.81-9.08
		c0,0,1.62-48.56-8.54-73.26c0,0-18.72-52.36-22.16-57.48l-1.04-3.92l-0.46-4.62L499.77,192.7z"/>
	<g>
		<g>
			<path class="st3" d="M526.24,252.88l-9.54-24.01c0,0-40.94,31.7-60.33,30.55c0,0-20.78,0.69-23.78-0.92
				c0,0,6.23,18.01,13.62,24.47c0,0,32.32,0.92,48.94-9.47C495.15,273.5,507.69,269.65,526.24,252.88z"/>
			<path class="st3" d="M412.2,336.91c0,0-0.3-22.81-16.23-41.34l-1.47-0.52l-8.62,10c0,0,14.31,6.31,15.24,10.77
				s-11.7,7.39-11.7,7.39l-0.46,12.62c0,0,1.23,2.31,2.62,1.69C392.96,336.91,412.2,336.91,412.2,336.91z"/>
			<path class="st3" d="M257.37,341.84l2-3.85l-0.77-19.85c0,0-39.55-50.02-47.71-50.94c0,0,6.93,11.54,8.93,15.85
				c2,4.31,5.85,17.24,5.85,17.24l1.39,3.54c0,0-0.92,3.85-0.92,4.62s3.08,7.23,3.08,7.23l-4.16,25.24
				C225.04,340.91,231.97,343.53,257.37,341.84z"/>
			<path class="st3" d="M198.27,400.32c0,0-10.77-23.86-11.39-24.16c-0.62-0.31-32.32,12.47-51.56,17.39
				c-19.24,4.93-52.94,6.93-52.94,6.93l19.85,22.47c0,0,34.94-0.92,68.8-12.62C204.88,398.63,198.27,400.32,198.27,400.32z"/>
			<path class="st3" d="M280.61,609.32c0,0-75.72,2.15-132.98-14.16c0,0,11.85,27.86,17.39,38.71c0,0,34.51,9.7,85.88,9
				c1.27-0.58,12.58-0.35,12.58-0.81c0-0.46,3.69-5.66,4.5-6.81s2.31-7.62,2.65-8.89S280.61,609.32,280.61,609.32z"/>
			<path class="st3" d="M310,607.79l14.31,24.36c0,0,8.2,4.27,30.47,1.39c0,0,47.9-6.12,53.79-8.89c0.69-0.35,10.62-2.77,10.62-2.77
				s8.08-22.7,8.23-30.86c0,0-57.56,14.93-75.72,15.54C351.71,606.55,328.47,609.32,310,607.79z"/>
		</g>
		<path class="st3" d="M438.97,430.64l-2.69-31.55c0,0-52.56,30.17-167.68,12.62l-44.63-7.08l-25.24-7.39l3.08,14.16l7.7,9.23
			c0,0,2.5,0.5-0.04,4.08c-2.54,3.58-5.31,6.23-5.31,6.23s0.35,5.89,0.69,6c0.35,0.12,36.24,14.89,60.95,17.66
			s82.99,2.08,117.51-4.62S438.97,430.64,438.97,430.64z"/>
	</g>
	<path class="st2" d="M400.27,135.1l-0.69-10.04l-13.39-18.01l-4.85-18.01c0,0-39.25-48.94-68.1-47.79c0,0-33.01-9-73.18,14.54
		c0,0-40.4,25.16-43.86,49.63l-2.54,18.01l-0.69,19.85l-16.39,24.93c0,0,8.08,8.08,9.7,8.08s11.77-17.78,11.77-17.78l34.17-13.16
		c0,0,15.7-22.39,49.63-21.93c1.62-0.46,11.31-9,13.62-8.89c2.31,0.12,2.77-1.5,14.31,6.69c0.12,0.46,10.5,4.04,10.5,4.04
		s50.56,4.39,57.48,6.35C384.68,133.6,400.27,135.1,400.27,135.1z"/>
	<g>
		<path class="st4" d="M256.56,713.06c0,0,2.08-7.16,2.08-13.27l-1.85-2.19c0,0,0.35-23.55-0.81-26.2
			c-1.15-2.65-48.02-7.85-48.02-7.85s-13.04-17.78-25.39-11.54c0,0-5.43,3.35-5.43,4.5s-3.12,1.39-3.12,1.39l-2.19,13.04l-1.85,1.85
			l-4.04-0.46l-1.27,3.23l-34.05-0.12c0,0-9.47,8.77-12.24,15.35l-2.65,0.58l-0.46,11.31c0,0,11.43,9.23,22.05,13.04
			c0.81-0.35,2.54,0.58,3.12,0.58s2.89-2.54,2.89-2.54l5.31,4.5c0,0,22.39,3.46,32.9,1.73l4.27-2.54c0,0,4.5,2.65,4.62,2.31
			c0.12-0.35,19.28-1.27,20.78-3.46l3.12-3.23l5.77,3.92c0,0,11.54,1.96,15.12-0.46l3.35-2.42l1.73,2.08c0,0,3.23,0.69,5.89-0.35
			C248.82,714.79,256.56,713.06,256.56,713.06z"/>
		<path class="st4" d="M442.63,711.33c0.58-0.23,28.05-9.7,47.67-21.93l0.23-5.43c0,0-1.85-2.08-2.08-2.54
			c-0.23-0.46-5.08-16.85-12.7-17.08c-7.62-0.23-14.89,0.69-14.89,0.69s-13.04,0.12-19.97-1.5c0,0-2.54-2.19-3.23-2.31
			c-0.69-0.12-2.77-2.54-2.77-2.54l-3.58,0.46c0,0-1.96-1.85-1.96-2.42s0.12-2.65-0.92-3.12c-1.04-0.46-2.42-1.27-2.42-1.27
			s1.5-6.12,0.81-7.73c-0.69-1.62-5.89-5.54-5.89-5.54s-7.39-4.5-7.73-4.27c-0.35,0.23-15.01-0.23-20.55,15.7
			c0,0-55.75,9.81-56.21,9.58c-0.46-0.23,0.92,37.75,2.31,37.75l-1.39,2.65v12.24c0,0,0.69,2.54,10.39,3.46
			c0.96-0.77,10.62,0.92,10.97,0.92c0.35,0,12.58,0,12.58,0s3-4.85,3.81-5.54s10.97,0.46,10.97,0.46l4.04,1.5l11.66-0.23l6.35-3.12
			l4.16,3.12c0,0,18.12,0.12,21.12-1.96c3-2.08,3.92-2.89,3.92-2.89l3.23,3.23L442.63,711.33z"/>
		<path class="st4" d="M385.84,56.95c-0.37-0.59-7.96-21.35-28.74-19.51s-23.78,27.7-23.78,27.7s-0.46,26.32,23.55,29.78
			c24.01,3.46,30.36-21.12,30.36-21.12S388.61,61.34,385.84,56.95z"/>
	</g>
	<g>
		<ellipse class="st5" cx="359.52" cy="57.07" rx="10.97" ry="10.27"/>
		<ellipse class="st5" cx="351.9" cy="75.54" rx="6.35" ry="6.81"/>
	</g>
	<path class="st6" d="M417.93,364.81c0,0-7.73-15.12-9.12-15.7s-2.89-1.27-2.89-1.27l-3.81,6.81l-6.35-6.46l-6.58,16.51l0.81,3.46
		l13.97-1.27l4.16-0.81h7.73L417.93,364.81z"/>
	<g>
		<g>
			<path class="st7" d="M384.18,263.65c-0.62,0-27.09,19.08-34.01,21.39c0,0-8.62,3.85-19.85-1.23c0,0-34.01-11.54-60.49-41.25
				c0,0-26.01-28.16-32.78-66.33c0,0-6-27.55-4.85-30.86l-15.01,5c0,0,2.15,33.55,5.08,38.32c0,0,17.85,42.48,21.39,44.79
				c3.54,2.31,29.09,36.94,50.79,42.48c21.7,5.54,24.78,13.39,24.78,13.39l4.31,8.93c0,0,23.55,8.31,40.79-6.77
				S384.18,263.65,384.18,263.65z"/>
			<path class="st7" d="M399.73,177.62c0,0,0.92-7.7-2.62-9.7c-3.54-2-3.23,0.15-3.23,0.15l1.08,8.31
				C394.96,176.39,396.96,179.62,399.73,177.62z"/>
		</g>
		<path class="st7" d="M464.06,497.74c1.54-0.31,6.31-7.08,5.08-12.93c-1.23-5.85-5.54-26.93-7.08-28.01
			c-1.54-1.08-6.31-3.23-6.31-3.23s-15.85,18.31-16.31,18.16s-35.4,22.32-69.1,26.32s-84.19-0.31-84.19-0.31
			s-24.17-4.26-48.52-10.49c-6.58-1.68-13.38-12.59-19.51-14.52c-2.86-0.9-5.41,7.26-8.02,6.33c-4.95-1.78-9.36-3.61-12.92-5.48
			l-24.63-7.85l-19.39,26.63c0,0,22.01,9.47,46.93,18.73c1.81,0.67-1.36,13.62,0.47,14.28c4.19,1.52,12.81,4.95,18.47,2.77
			c3.27-1.26,3.97-8.96,6.34-8.19c10.91,3.55,21.14,6.42,29.06,7.8c31.86,5.54,90.65,13.54,127.13,2.46
			c36.48-11.08,54.33-21.85,54.33-21.85l3.69,3.69c0,0,1.69,2.92,1.23,3.08c-0.46,0.15-3.23,6.77-3.23,6.77l-0.15,9.85
			c0,0,17.85,3.08,23.09-8.16S464.06,497.74,464.06,497.74z"/>
	</g>
	<g>
		<path class="st8" d="M468.83,140.99c0,0-21.39-35.71-28.78-39.86c0,0-13.7-12.62-15.7-12.62c-2,0-2.31,23.86,3.08,33.24l-6-3.39
			c0,0-8.31-8.31-18.31-3.23c0,0-11.7-17.85-18.47-15.39l1.85,8.46l12,14.16l1.23,3.54l1.23,13.39l-13.24,4.31
			c0,0,9.54,22.32,10.16,25.7c0.62,3.39,11.54,0.15,13.39-7.23c0,0,5.54,7.85,8,7.7c0,0,7.7-2.92,8.77-21.09
			c0,0,8.93,1.08,14.01-5.39l6.62,6.46C448.67,149.76,457.75,151.3,468.83,140.99z"/>
		<path class="st8" d="M448.67,201.78l-11.08-16.31c0,0-28.47,5.08-60.18-17.39s-52.17-16.62-52.17-16.62s-26.47,7.23-35.09,21.7
			l-5.69,10c0,0-19.39,0.62-19.39,18.47s15.54,30.47,15.54,30.47s10,10.93,13.47,9.31s20.08,27.47,20.08,27.47
			s13.39,16.62,33.24,13.16c19.85-3.46,19.62-23.09,19.62-23.09s2.08-14.54-2.54-21.24c0,0,28.16-4.16,45.48-12.93
			C409.96,224.79,433.13,215.02,448.67,201.78z"/>
		<path class="st8" d="M204.15,430.95c0,0-36.21,31.7-84.99,21.85c0,0-14.01,40.17-12.16,46.02s27.4-17.39,27.4-17.39l-6.46,23.55
			c0,0,6.46,7.85,38.48-28.93l3.23,0.62c0,0-6.16,26.01-5.69,25.7c0.46-0.31,14.47,2.15,33.55-34.63
			C197.5,467.73,208.65,440.49,204.15,430.95z"/>
	</g>
	<path class="st9" d="M350.94,261.34c0,0,0-15.24-25.7-23.39c-25.7-8.16-19.24-2.92-19.24-2.92s19.7,30.47,35.09,28.93
		C341.09,263.96,348.79,264.42,350.94,261.34z"/>
	<g>
		<path class="st10" d="M162.71,591.86c0,0,9.47,6.69,16.85,3.23c0,0,37.4-64.87,36.71-64.87c-0.69,0-14.77-4.39-14.77-4.39
			L162.71,591.86z"/>
		<path class="st10" d="M239.82,495.59l-9.39,14.31c0,0,2.15,6.46,9.54,5.23c0,0,2.92,0.15,6-4.16c0,0,4.46-7.54-0.15-11.7
			C241.21,495.13,239.82,495.59,239.82,495.59z"/>
		<path class="st10" d="M277.68,505.59c-6.93,1.85-8.77,10-8.77,10s-0.31,9.54,7.39,8.93c7.7-0.62,8.77,2,11.85-11.24
			C288.15,513.29,284.61,503.75,277.68,505.59z"/>
		<path class="st10" d="M393.42,502.36c-3.85,0.77-8.62,0.46-8.62,4c0,0-4.31,9.39,2.77,12.47c7.08,3.08,9.39-1.08,9.39-1.08
			s4.16-8.46,0.62-12.47C397.57,505.28,397.27,501.59,393.42,502.36z"/>
		<path class="st10" d="M429.43,494.36c0,0-6.16-4.77-10.47-2.46c-4.31,2.31-6.46,10.31-4.46,10.93c2,0.62,3.23,7.7,9.39,4.62
			S429.43,494.36,429.43,494.36z"/>
		<path class="st10" d="M202.11,383.39l-1.23,1.23l55.71,46.02l-19.85,36.78l-5.08,15.08c0,0,9.08,7.39,11.7,4.92
			c0,0,3.39-9.7,2.62-15.08c-0.77-5.39,20.47-35.55,20.47-35.55l19.55,14.78c0,0,8,1.85,8.46,1.85s9.7-13.7,9.7-13.7
			S233.82,379.7,202.11,383.39z"/>
		<path class="st10" d="M322.24,95.05l11.2-4.85c0,0-7.39-16.97-4.62-18.93l2.73-8.54l2.77,0.77c0,0,0.08-11.7,8.62-19.39
			c8.54-7.7,6.08-6.54,6.08-6.54s-13.39-0.23-24.24,18.35c0,0-12.35,1.39-10.04,20.2C317.04,94.93,322.24,95.05,322.24,95.05z"/>
		<path class="st10" d="M237.74,225.37c0.76-0.28,13.74-10.62,14.08-10.62c0.35,0,2.08-4.04,2.08-4.04l-10.16-28.86l-3.69-1.96
			c0,0-19.62,10.74-19.62,11.08c0,0.35,10.16,30.47,10.16,30.47S235.2,226.29,237.74,225.37z"/>
		<path class="st10" d="M326.74,278.46c0,0-4.73-3.23-5.89,8.31c-1.15,11.54,5.66,14.08,5.66,14.08s5.77,4.73,13.85,3.23
			c8.08-1.5,13.39-2.19,19.85-6.69c6.46-4.5,3.35-18.58,3.35-18.58l-4.73-2.19C358.83,276.62,349.59,288.85,326.74,278.46z"/>
		<path class="st10" d="M363.87,385.08l3.54-1l0.08-11.24l-6.85-30.32l-3.92,1.46c0,0,6.23,25.47,6.08,29.4
			C362.64,377.31,363.87,385.08,363.87,385.08z"/>
		<path class="st10" d="M301,487.51c0,0,5.08,21.47-0.23,54.94c0,0,9.35,8.43,31.4,7.5c22.05-0.92,31.4-7.62,31.4-7.62
			s3.58-6.58,3.69-9.23c0.12-2.65,5.31-42.59,2.54-47.21C367.95,486.35,324.08,492.82,301,487.51z M342.01,522.06
			c2.77,11.85,15.85,6.77,15.85,6.77l-1.85,7.23c-22.47,12.16-42.79-2.62-42.79-2.62l1.39-33.86c27.4,1.85,43.25-1.69,43.25-1.69
			l1.08,13.08l-2.62,0.92C356.33,511.9,339.24,510.21,342.01,522.06z"/>
	</g>
	<path d="M538.67,332.8c-0.13-0.7-0.07-1.43-0.08-2.15c-0.05-6.79,0.07-13.58-0.18-20.37c-0.22-6.06-0.73-12.11-1.32-18.15
		c-0.87-8.85-2.44-17.59-4.61-26.21c-3.7-14.74-8.82-28.99-14.78-42.95c-2.69-6.3-5.01-12.8-8.82-18.55
		c-1.93-2.91-3.31-5.88-2.95-9.45c0.01-0.14-0.02-0.29-0.03-0.43c-0.08-1.23-0.75-2-1.89-2.37c-0.54-0.18-1.09-0.29-1.59-0.42
		c-0.81-2.29-1.14-2.42-4.09-1.66c-0.12-0.63-0.26-1.25-0.35-1.87c-0.83-5.91-2.44-11.54-5.19-16.88
		c-3.45-6.7-7.23-13.16-11.97-19.04c-3.22-3.99-5.92-8.46-9.46-12.12c-3.02-3.12-5.12-6.71-7.34-10.29
		c-4.78-7.68-10.21-14.89-15.61-22.14c-6.22-8.35-14.02-14.92-22.65-20.61c-1.85-1.22-4.06-1.2-4.58,2.21
		c-0.25,1.64-0.26,3.31-0.35,4.97c-0.4,7.48,1.21,14.64,3.56,21.67c0.22,0.66,0.45,1.33,0.72,2.14c-2.42-1.55-4.67-2.95-6.88-4.41
		c-3.47-2.28-7.31-3.01-11.37-2.74c-0.96,0.06-1.91,0.57-2.84,0.92c-0.43,0.16-0.82,0.45-1.18,0.65c-1.06-1.9-1.83-3.82-3.06-5.38
		c-2.02-2.54-4.27-4.9-6.56-7.21c-1.21-1.22-2.65-2.24-4.1-3.18c-1.41-0.91-1.68-0.76-2.99,0.38c-0.28,0.24-0.7,0.3-1.11,0.47
		c-0.68-2.97-1.23-5.8-2.02-8.57c-0.36-1.25-0.2-2.12,0.57-3.14c7.25-9.64,8.24-20.15,3.7-31.11c-3.55-8.58-10.01-14.3-18.73-17.56
		c-9.33-3.49-18.49-3.3-27.56,0.8c-3.24,1.47-6.18,3.43-8.71,5.79c-3.17-0.92-6.19-1.82-9.23-2.68c-7.7-2.19-15.64-2.76-23.55-3.14
		c-5.32-0.26-10.68,0.25-16.02,0.52c-2.16,0.11-4.33,0.34-6.44,0.81c-21.48,4.73-40.73,13.95-57.26,28.58
		c-5.75,5.09-10.93,10.75-15.83,16.64c-3.1,3.73-5.59,7.88-7.34,12.45c-3.9,10.17-4.55,20.81-4.76,31.53
		c-0.08,4.18-0.16,8.37-0.26,12.55c-0.04,1.7-0.55,3.24-1.58,4.62c-1.6,2.14-3.15,4.31-4.71,6.48c-3.98,5.5-7.95,11-11.93,16.51
		c-0.08,0.12-0.16,0.24-0.24,0.36c-0.6,0.79-0.52,1.49-0.03,2.38c1.11,1.99,2.75,3.34,4.73,4.3c2.06,1,4.18,1.86,6.42,2.85
		c-0.75,0.98-1.44,1.9-2.15,2.8c-3.2,4.1-6.22,8.31-8.61,12.98c-3.13,6.12-4.94,12.41-3.96,19.39c1.06,7.51,3.15,14.52,8.48,20.21
		c0.06,0.07,0.02,0.24,0.04,0.51c-2.09,0.87-4.22,1.75-6.34,2.63c-2.75,1.14-2.74,1.14-2.7,4.11c0,0.12-0.11,0.25-0.17,0.36
		c-1.81,0.5-3.64,0.9-5.39,1.52c-6.48,2.31-12.71,5.21-18.39,9.1c-6.37,4.37-12.66,8.87-18.87,13.47
		c-8.66,6.42-17.07,13.13-24.49,21.01c-11.06,11.75-21.27,24.22-30.98,37.09c-5.01,6.63-9.82,13.41-13.64,20.83
		c-1.08,2.1-1.93,4.33-2.88,6.5c0,0.58,0,1.16,0,1.74c0.39,0.55,1.03,1.05,1.14,1.65c1.14,6.1,3.46,11.78,6.34,17.2
		c5.08,9.58,10.64,18.89,16.94,27.71c6.56,9.2,14.33,17.39,22.38,25.3c1.75,1.72,3.36,3.56,5.09,5.42c-0.69,0.77-1.59,1.71-2.42,2.7
		c-1.41,1.7-1.16,3.14,0.77,4.27c0.99,0.58,2.08,0.96,3.38,1.55c-0.27,1.52-0.58,3.19-0.88,4.87c-0.22,1.21-0.51,2.41-0.61,3.62
		c-0.12,1.49,0.36,2.03,1.83,2.43c0.34,0.09,0.69,0.18,1.01,0.33c2.81,1.3,5.61,2.61,8.39,3.9c-3.18,8.06-6.35,16.25-8.43,24.8
		c-1.53,6.31-2.97,12.64-4.36,18.98c-0.2,0.93-0.03,2,0.2,2.94c0.28,1.11,0.98,1.54,1.93,0.99c2.72-1.57,5.84-1.47,8.71-2.34
		c0.13-0.04,0.28-0.03,0.69-0.06c0.18,1.15,0.36,2.32,0.55,3.5c3.1,18.9,7.46,37.48,13.9,55.55c1.52,4.28,2.92,8.6,4.32,12.92
		c4.87,14.94,11.66,29.05,18.6,43.1c2.88,5.83,5.86,11.6,8.75,17.42c0.27,0.54,0.28,1.22,0.37,1.84c0.24,1.63,0.32,3.3,0.73,4.89
		c0.52,2.02,1.39,3.96,1.92,5.98c0.32,1.22,0.41,2.55,0.36,3.82c-0.04,1.08,0.31,1.79,1.12,2.4c1.44,1.07,2.86,2.17,4.37,3.33
		c-0.89,0.86-1.72,1.61-2.49,2.4c-0.76,0.78-0.97,1.67-0.68,2.78c0.57,2.18,1.07,4.38,2.8,5.99c0.58,0.54,0.57,1.13,0.38,1.77
		c-0.45,1.59-0.94,3.17-1.47,4.97c-2.89-0.49-5.64-0.54-6.09,3.09c-3.99,0-7.89,0.09-11.78-0.03c-4.11-0.13-8.22-0.56-12.33-0.66
		c-3.1-0.07-6.21,0.15-9.31,0.28c-0.48,0.02-1.05,0.15-1.42,0.43c-4.49,3.41-8.14,7.54-10.51,12.71c-0.53,1.16-1.11,2.11-2.54,2.31
		c-1.24,0.17-1.57,1.26-1.65,2.27c-0.23,2.79-0.52,5.56-0.39,8.4c0.12,2.44,1.15,3.96,2.84,5.32c0.89,0.72,1.87,1.34,2.81,1.99
		c5.08,3.5,10.5,6.32,16.41,8.13c0.34,0.11,0.69,0.23,1,0.41c2.36,1.32,4.68,1.96,6.83-0.36c0.59,0.77,1.04,1.4,1.55,1.98
		c0.95,1.1,2.28,1.29,3.63,1.56c2.75,0.55,5.46,1.31,8.21,1.88c1.97,0.41,3.97,0.65,5.96,0.97c3.47,0,6.94,0,10.41,0
		c0.71-0.09,1.42-0.2,2.13-0.26c2.23-0.18,4.46-0.45,6.7-0.48c1.69-0.03,2.97-0.46,3.44-2.27c0.41,0.13,0.67,0.21,0.94,0.29
		c3.08,0.88,6.16,1.4,9.38,0.61c2.16-0.53,4.43-0.64,6.61-1.09c3.51-0.72,7.2-0.8,10.37-2.79c0.17-0.11,0.47-0.2,0.62-0.13
		c1.61,0.76,3.57,0.15,5.08,1.47c1.18,1.03,2.75,1.19,4.31,1.03c3.87-0.38,7.75-0.81,11.63-1.1c1.47-0.11,2.85-0.29,3.79-1.58
		c2.2,1.63,4.43,1.63,6.74,0.96c3.53-1.03,7.05-2.07,10.59-3.08c2.08-0.59,3.39-1.85,3.53-4.07c0.23-3.6,0.37-7.21,0.6-10.81
		c0.09-1.47-0.12-2.72-1.8-3.18c0.68-8.51-0.07-16.82-1.23-25.17c0.79-0.27,1.37-0.54,1.99-0.66c1.12-0.21,2.02-0.72,2.69-1.65
		c0.72-0.99,1.51-1.94,2.12-3c1.09-1.9,0.72-3.78-0.86-5.29c-0.55-0.52-1.05-1.09-1.64-1.7c0.64-0.48,1.09-0.83,1.56-1.16
		c1.06-0.75,2.16-1.45,3.19-2.25c1.55-1.21,1.61-1.83,0.47-3.41c-0.3-0.41-0.55-0.86-0.9-1.22c-1.09-1.15-1.37-2.43-0.9-3.97
		c0.29-0.96,0.66-2.05,0.47-2.97c-0.46-2.22,0.5-3.73,1.94-5.15c0.41-0.4,0.75-0.88,1.11-1.33c1.85-2.37,3.16-4.96,3.54-8.02
		c0.16-1.25,0.56-2.58,1.21-3.65c6.4-10.48,13.89-20.08,23.13-28.24c0.47-0.41,1-0.74,1.53-1.12c0.71,0.54,1.3,0.95,1.85,1.42
		c0.38,0.33,0.74,0.7,1.04,1.1c10.29,13.47,19.35,27.7,26.84,42.92c1.91,3.88,2.85,7.83,1.53,12.12c-0.4,1.29,0.08,1.83,1.47,2.01
		c0.61,0.08,1.22,0.11,2.06,0.19c-1.27,2.22-2.47,4.17-3.53,6.19c-1.13,2.15-0.79,4.25,0.97,5.9c0.72,0.68,1.6,1.23,2.5,1.66
		c1.09,0.52,2.27,0.85,3.41,1.27c-0.65,9.08,1.4,17.92,1.95,26.82c-0.49,0.54-1.36,1.06-1.45,1.68c-0.28,1.98-0.34,4.01-0.33,6.01
		c0.01,1.8,0.31,3.6,0.34,5.41c0.03,2.07,0.98,3.32,2.87,4.1c4.28,1.78,8.72,2.5,13.33,2.21c0.86-0.05,1.6,0.03,2.46,0.4
		c1.43,0.61,3.04,1,4.6,1.08c2.96,0.15,5.93,0.08,8.89-0.04c2.61-0.11,4.94-0.92,6.41-3.33c0.26-0.43,0.65-0.78,0.91-1.22
		c0.63-1.07,1.59-1.36,2.75-1.28c1.59,0.11,3.18,0.16,4.76,0.3c1.43,0.12,2.84,0.28,4.12,1.14c0.61,0.41,1.49,0.54,2.26,0.55
		c4.04,0.05,8.09,0.09,12.12-0.03c1.25-0.04,2.66-0.33,3.68-0.99c1.26-0.82,2.38-1.65,4.05-1.43c0.51,1.21,1.57,1.75,2.86,1.88
		c2.36,0.24,4.7,0.74,7.11,0.26c1.69-0.34,3.45-0.32,5.15-0.6c2.99-0.48,5.96-1.05,8.93-1.61c1.19-0.22,2.18-0.73,2.11-2.18
		c0.98,0,1.77,0,2.46,0c0.3,0.63,0.42,1.44,0.86,1.7c1.37,0.79,2.66,2.42,4.53,0.92c0.14-0.12,0.43-0.04,0.63-0.09
		c4.04-1.04,8.14-1.92,12.11-3.18c11.87-3.77,22.73-9.54,32.65-17.06c1.15-0.87,2.36-2.13,2.76-3.45c0.82-2.66,0.4-5.28-1.86-7.33
		c-0.49-0.45-0.97-1.09-1.11-1.71c-1.35-6.19-4.58-11.33-8.74-15.97c-1.17-1.31-2.64-1.98-4.36-2.13c-0.41-0.03-1.04-0.04-1.22,0.2
		c-0.74,0.97-1.77,0.79-2.75,0.94c-2.28,0.35-4.54,0.81-6.83,1.09c-2.07,0.25-4.17,0.52-6.23,0.43c-3.09-0.14-6.19-0.49-9.26-0.92
		c-2.92-0.41-5.82-1.01-8.71-1.59c-0.52-0.1-1.29-0.4-1.42-0.78c-0.4-1.21-1.48-0.93-2.28-1.2c-0.22-0.75-0.41-1.42-0.67-2.33
		c-1.24,0.12-2.42,0.27-3.61,0.35c-2.75,0.17-5.3,0.96-7.36,2.78c-2.92,2.58-5.72,5.29-8.52,8.01c-1.44,1.4-2.75,2.93-4.07,4.36
		c-2.4-1.09-4.4-2.68-7.37-2.71c0.63-0.56,0.92-0.87,1.25-1.11c2.82-2.02,5.58-4.13,8.49-6c3.72-2.38,7.68-4.3,12.09-5.07
		c0.78-0.14,1.56-0.31,2.31-0.54c0.8-0.25,1.03-0.74,0.9-1.65c-0.26-1.86-1.07-3.22-2.86-3.87c1.41-4.05,1.09-7.8-1.06-11.36
		c-0.78-1.28-1.76-2.27-3.39-2.39c-0.45-0.03-0.95-0.3-1.31-0.6c-1.64-1.37-3.24-2.79-4.95-4.27c0.08-0.21,0.25-0.69,0.45-1.15
		c4.62-10.46,8.04-21.34,10.83-32.4c1.94-7.69,3.52-15.48,5.31-23.22c2.76-11.91,4.66-23.95,5.46-36.15c0.1-1.5,0.27-3,0.42-4.66
		c1.8-0.17,3.54-0.19,5.22-0.53c6.94-1.42,12.76-4.89,17.6-10c0.9-0.95,1.63-2.27,1.94-3.54c1.28-5.2,2.05-10.48,1.99-15.85
		c-0.02-1.8,0-3.6,0-5.4c2.48-1.85,3.9-4.33,4.67-7.19c0.72-2.69,0.88-5.44,0.36-8.17c-0.92-4.89-1.82-9.8-3.01-14.63
		c-1.1-4.48-2.53-8.87-3.91-13.28c-0.87-2.79-2.68-4.76-5.59-5.55c-0.12-0.03-0.21-0.18-0.35-0.31c0.33-2.91-1.22-5.03-3-7.12
		c-1.8-2.11-4.25-3.15-6.68-4.33c0.17-1.16,0.35-2.22,0.49-3.28c0.54-3.97-0.82-5.82-4.77-6.5c-0.21-0.04-0.44-0.02-0.65-0.07
		c-0.9-0.21-1.79-0.43-2.69-0.65c-1.55-3.21-0.81-6.5-1.03-9.69c-0.28-4.03-0.71-8.06-1.06-12.08c-1.04-12.04-3.5-23.84-5.99-35.64
		c-1.74-8.22-4.65-16.07-7.8-23.84c-0.28-0.69-0.5-1.42-0.85-2.44c2.46,0.19,4.53,0.47,6.61,0.49c13.3,0.12,26.6,0.49,39.89-0.4
		c7.34-0.49,14.68-1.12,22.02-1.76c3.3-0.29,6.6-0.67,9.88-1.12c4.07-0.56,8.14-1.15,12.18-1.88c5.03-0.91,10.08-1.82,15.04-3.04
		c2.64-0.65,5.47-0.97,7.78-2.75C538.29,334.61,538.9,334,538.67,332.8z M462.22,476.11c-0.65-2.26-3.52-3.2-3.5-5.91
		C459.78,472.24,462.36,473.28,462.22,476.11z M522.92,252.91c-1.24,1.15-2.37,2.39-3.67,3.38c-11.93,9.03-24.6,16.69-39.14,20.84
		c-5.7,1.63-11.52,2.73-17.4,3.27c-4.23,0.39-8.5,0.33-12.76,0.46c-1.92,0.06-3.36-0.55-4.44-2.39
		c-3.28-5.61-6.74-11.11-10.13-16.66c-0.22-0.36-0.38-0.77-0.54-1.09c3.7,0.36,7.2,0.79,10.71,1.02c7.23,0.48,14.23-0.92,21.14-2.83
		c15.23-4.21,28.99-11.3,41.28-21.25c2.29-1.86,4.64-3.65,7.17-5.63C517.99,238.97,520.45,245.85,522.92,252.91z M498.69,195.9
		c0.9-1.34,1.02-1.27,3.24-0.19c0.06,0.69,0.24,1.48,0.16,2.25c-0.2,2.16,0.44,4.07,1.29,6.03c3.36,7.75,6.6,15.55,9.88,23.33
		c0.05,0.12,0.04,0.28,0.07,0.54c-0.36,0.34-0.76,0.75-1.19,1.11c-8.99,7.41-18.18,14.48-28.85,19.43
		c-10.02,4.65-20.4,8.08-31.38,9.3c-6.34,0.71-12.69,0.13-18.87-1.7c-1.06-0.31-1.49-1.03-1.91-1.88c-3-6.01-6.05-11.99-8.98-18.03
		c-0.77-1.59-1.73-2.77-3.37-3.45c-0.79-0.33-1.93-0.52-1.66-2.07c2.19,0.17,4.39,0.46,6.59,0.5c4.47,0.09,8.96,0.24,13.42,0.03
		c11.88-0.58,22.19-5.89,32.46-11.21c7.7-3.99,14.25-9.59,20.72-15.27C493.33,201.96,496.4,199.32,498.69,195.9z M410.62,282.51
		c-0.15,0.02-0.3,0.04-0.46,0.06c-0.38-1.71-0.73-3.42-1.14-5.12c-0.13-0.55-0.27-1.26-0.66-1.54c-0.91-0.66-1.92-1.24-2.98-1.59
		c-0.87-0.29-1.42,0.46-1.82,1.21c-2.16,4-4.31,7.99-6.49,11.97c-2.03,3.7-4.68,6.93-7.51,10.03c-1.17,1.28-2.38,2.53-3.43,3.9
		c-0.86,1.12-1.6,2.36-2.26,3.62c-0.55,1.06-0.02,2.01,1.21,2.2c3.52,0.55,6.51,2.22,9.27,4.35c1.88,1.45,3.71,2.95,5.73,4.57
		c-3.55,1.68-6.96,3.16-10.24,4.88c-2.54,1.33-5.01,2.86-7.37,4.49c-3.68,2.55-7.24,5.26-10.86,7.89c-0.44,0.32-0.92,0.58-1.57,0.99
		c0.04-0.45,0-0.68,0.09-0.82c4.53-7.12,6.89-15.04,8.58-23.21c0.25-1.2,0.34-2.43,0.55-3.63c0.1-0.55,0.19-1.16,0.49-1.61
		c3.81-5.7,5.47-12.21,7.15-18.7c1.18-4.55,1.83-9.2,2.11-13.89c0.09-1.43-0.07-2.88-0.12-4.32c-0.04-1.22-0.15-2.45-0.09-3.67
		c0.14-2.66,1.13-4.39,3.71-6.83c2.39,1.45,4.79,2.9,7.18,4.35c4.61,2.8,7.55,6.96,9.97,11.69
		C411.19,276.74,410.46,279.6,410.62,282.51z M401.77,313.72c-0.14-0.17-0.29-0.32-0.45-0.47c-3.81-3.55-7.63-7.09-12.69-8.86
		c-0.26-0.09-0.5-0.22-0.93-0.41c2.44-2.6,4.79-5.11,7.21-7.68c0.27,0.75,0.4,1.51,0.78,2.1c0.73,1.12,1.84,2,1.27,3.65
		c-0.15,0.43,0.46,1.16,0.79,1.71c3.27,5.45,6.58,10.87,9.82,16.34c0.77,1.3,1.35,2.58,1.24,4.32c-0.14,2.18,0.62,4.4,0.93,6.62
		c0.22,1.56,0.35,3.13,0.53,4.83c-6.67,0-13.2,0-19.58,0c-0.23-3.62-0.46-7.12-0.71-10.95c1.95-0.89,4.12-1.81,6.24-2.85
		c1.67-0.82,3.34-1.69,4.88-2.72C403.22,317.9,403.41,315.74,401.77,313.72z M395.96,295.57c3.63-5.84,7.22-11.63,10.98-17.66
		c0.31,2.06,0.71,3.95,0.85,5.86c0.37,5.03,0.56,10.08,0.96,15.11c0.42,5.24,1,10.47,1.52,15.71c-0.13,0.02-0.25,0.04-0.38,0.06
		c-0.55-1-1.1-2-1.64-3.01c-2.7-5.03-5.65-9.9-9.31-14.31C398.09,296.31,397.3,295.33,395.96,295.57z M357.91,342.54
		c-1.28-2.3-2.61-4.57-3.84-6.9c-1.51-2.85-3.68-5.14-5.91-7.42c-6.65-6.81-14.65-11.67-23-16.03c-1.73-0.9-2.59-2.06-2.73-4
		c-0.22-3.01-0.62-6.01-0.98-9.35c1.01,1.41,1.94,2.56,3.91,1.87c-0.33,1.4,0.17,2.04,1.34,2.41c9.95,3.12,19.73,3.1,29.28-1.44
		c1.02-0.49,1.92-1.25,2.87-1.89c0.12-0.08,0.18-0.27,0.3-0.31c3.07-1.03,3.65-3.81,4.5-6.39c0.02-0.07,0.06-0.13,0.07-0.15
		c4.74-1.77,8.79-4.14,12.03-7.81c2.73-3.1,5.1-6.46,7.13-10.05c0.49-0.87,1.01-1.73,1.88-2.57c0,0.51,0.07,1.03-0.01,1.52
		c-1.27,7.84-2.65,15.64-5.25,23.19c-1.51,4.38-3.96,8.17-6.84,11.71c-1.21,1.48-2.52,2.88-4.01,4.57c0.34-1.28,0.61-2.29,0.96-3.62
		c-1.29,0.58-1.66,1.6-2.26,2.39c-0.6,0.79-1.18,1.59-2.07,2.24c0.2-0.87,0.39-1.75,0.71-3.16c-0.66,0.68-1,0.95-1.25,1.3
		c-1.59,2.23-3.18,4.47-4.71,6.74c-0.23,0.34-0.35,1.01-0.16,1.31c0.37,0.6,1.09,0.46,1.51,0.03c0.84-0.87,1.58-1.84,2.44-2.88
		c1.4,0.98,2.48,0.03,3.46-1.01c1.84,0.57,2.09,0.54,2.81-0.97c0.56-1.16,0.93-2.41,1.45-3.78c1.22,0.61,2.28,0.32,3-1.1
		c0.34,2.53-2.48,12.22-5.06,17.56C367.2,333.23,362.98,339.03,357.91,342.54z M364.95,369.81c0.75,4.21,0.57,8.58,0.81,12.91
		c-1.24,0.31-1.35-0.24-1.38-0.87c-0.1-1.73-0.16-3.46-0.32-5.18c-0.91-9.86-2.31-19.62-5.35-29.09c-0.32-0.99-0.67-1.92,0.6-2.79
		c0.23,0.78,0.48,1.49,0.64,2.21C361.66,354.59,363.58,362.15,364.95,369.81z M284.33,260.17c5.59,3.91,10.81,8.37,16.97,11.39
		c6.07,2.98,12.21,5.84,18.44,8.81c-0.32,0.38-0.72,0.86-1.12,1.34C305.88,276.48,294.34,269.54,284.33,260.17z M315.49,289.99
		c-3.45-2.78-7.45-2.55-11.48-2.32c2.63-1.4,5.45-1.84,8.3-1.54C314.34,286.36,315.08,288.11,315.49,289.99z M312.83,269.77
		c1.45,1.8,2.92,3.58,4.46,5.29c0.51,0.57,1.26,0.92,1.9,1.37c-0.14,0.18-0.28,0.35-0.42,0.53c-0.26-0.03-0.56,0-0.77-0.11
		c-7.48-3.91-15.13-7.5-22.17-12.22c-9.28-6.23-17.09-14-24.13-22.59c-3.61-4.42-7.24-8.83-10.62-13.43c-2.09-2.84-3.74-6-5.55-9.04
		c-0.78-1.31-1.45-2.68-2.91-3.31c0.02-0.21-0.02-0.39,0.04-0.45c2.24-2.09,2.01-4.63,1.21-7.2c-2.24-7.16-4.52-14.31-6.8-21.46
		c-0.48-1.51-1.03-3-1.55-4.5c-0.98-2.87-2.72-4.13-5.78-4.16c-0.29,0-0.57,0.05-1.13,0.1c-2.56-10.69-4.13-21.57-5.07-32.33
		c3.2-2.94,6.26-5.88,9.46-8.67c6.34-5.52,13.69-9.02,21.91-10.74c4.87-1.02,9.73-2.08,14.72-2.35c0.34-0.02,0.68,0,1.2,0
		c-0.89,1.6-1.72,3.01-2.47,4.47c-0.46,0.89-0.87,1.83-1.14,2.8c-0.1,0.37,0.16,1.04,0.46,1.24c0.24,0.15,0.94-0.11,1.21-0.39
		c2.73-2.89,5.34-5.89,8.14-8.72c2.18-2.2,4.55-4.22,6.86-6.29c1.21-1.08,2.5-1.31,4.19-0.87c2.75,0.71,4.98,2.32,7.23,3.82
		c3.65,2.44,7.36,4.89,10.01,8.54c0.17,0.23,0.38,0.54,0.61,0.59c0.47,0.09,1.09,0.19,1.41-0.04c0.29-0.21,0.43-0.89,0.34-1.3
		c-0.13-0.61-0.52-1.17-0.92-2c1.25,0.22,2.3,0.35,3.32,0.59c4.64,1.12,9.36,1.67,14.11,2.09c3.95,0.35,7.89,0.9,11.84,1.18
		c5.54,0.4,11.12,0.48,16.65,1.02c5.38,0.52,10.72,1.45,16.07,2.22c0.42,0.06,0.82,0.26,1.29,0.41c1.42,7.39,5.05,13.97,7.43,21
		c1.76,5.19,3.44,10.42,5.06,15.66c0.46,1.5,0.61,3.1,0.99,5.15c-2.16-1.13-4.05-1.92-5.73-3.03c-7-4.61-13.9-9.36-20.9-13.96
		c-5.22-3.43-10.89-5.93-16.99-7.29c-4.85-1.08-9.68-2.25-14.68-2.55c-6.31-0.38-12.36,0.47-18.18,3.02
		c-6.63,2.9-13.15,5.98-18.83,10.56c-5.95,4.78-10.71,10.51-13.8,17.54c-0.09,0.19-0.23,0.36-0.42,0.66
		c-2.77-0.6-5.52-0.3-8.16,0.86c-2.93,1.27-5.34,3.14-6.98,5.93c-0.55,0.93-1.15,1.84-1.77,2.72c-3.09,4.4-4.12,9.27-3.57,14.59
		c0.38,3.66,1.42,7.06,3.06,10.31c0.94,1.87,1.86,3.75,2.76,5.64c1.42,2.97,3.42,5.56,5.71,7.86c1.33,1.34,3.2,2.17,4.88,3.13
		c0.29,0.17,0.85-0.12,1.52-0.25c-1.08-1.29-1.86-2.41-2.82-3.36c-6.05-6.04-9.09-13.57-10.96-21.73
		c-1.28-5.57,0.1-10.58,2.84-15.36c0.35-0.61,0.79-1.28,1.37-1.65c2.13-1.34,4.25-2.73,6.53-3.77c1.18-0.54,2.69-0.62,4.02-0.52
		c1.77,0.13,2.89-0.64,3.79-1.96c0.49-0.71,0.95-1.46,1.29-2.26c3.3-7.76,9.24-13.16,15.89-17.94c5.87-4.21,12.49-6.91,19.2-9.38
		c1.99-0.73,4.22-1,6.35-1.12c8.34-0.46,16.38,1.01,24.09,4.25c3.58,1.5,7.27,2.79,10.71,4.58c3.06,1.59,5.93,3.6,8.71,5.65
		c4.02,2.97,8.19,5.68,12.61,8c4.28,2.25,8.54,4.54,12.89,6.65c6.48,3.14,13.47,4.63,20.47,6.07c4.56,0.94,9.19,0.97,13.81,0.83
		c1.44-0.04,2.87-0.27,4.51-0.43c-0.14,3.04,0.42,5.87,1.95,8.48c1.52,2.59,4.04,3.99,6.94,5.51c-0.97,0.91-1.57,1.58-2.27,2.12
		c-8.84,6.82-18.24,12.71-28.69,16.76c-8.26,3.2-16.49,6.52-24.88,9.38c-5.16,1.76-10.56,2.87-15.9,4.06
		c-2.59,0.58-5.29,0.75-7.95,0.96c-4.97,0.38-9.94,0.66-14.91,0.96c-3.7,0.22-7.35-0.2-10.99-0.84c-6.74-1.19-13.53-2.17-20.23-3.54
		c-4.15-0.85-8.23-2.14-12.25-3.49c-2.02-0.67-3.84-1.9-5.82-2.92c-0.26-3.39-1.14-6.66-2.37-9.83c-0.59-1.52-1.41-2.86-2.98-3.54
		c-0.31-0.13-0.66-0.15-1.4-0.31c0.33,0.98,0.59,1.68,0.8,2.4c0.76,2.71,1.55,5.41,2.22,8.14c1.25,5.08,0.14,9.87-1.96,14.52
		c-0.21,0.46-0.45,0.9-0.67,1.36c-0.33,0.69-0.21,1.29,0.5,1.64c0.77,0.38,1.23-0.14,1.58-0.71c1.46-2.35,2.9-4.71,4.45-7.23
		c0.83,0.87,1.86,1.77,2.66,2.84c2.33,3.13,4.53,6.35,6.86,9.48c5.08,6.83,10.7,13.11,18.23,17.35c2.01,1.13,4.08,2.16,6.17,3.13
		c4.08,1.9,8.25,1.88,12.41,0.3c1.95-0.74,3.86-1.61,5.73-2.55c2.68-1.35,4.1-3.88,5.18-6.47c2.01-4.82,2.79-9.84,1.44-15.04
		c-0.12-0.46-0.08-0.97-0.12-1.6c1.24,0,2.37,0,3.74,0c0.88,3.53,1.77,7.14,2.69,10.81c0.9-0.57,1.84-1.16,2.84-1.79
		c0.35,0.56,0.66,1.06,0.97,1.57c0.3-0.04,0.56,0.01,0.7-0.1c0.82-0.62,1.55-0.81,2.5-0.08c0.83,0.64,1.49,0.4,1.78-0.6
		c0.37-1.29,0.54-2.65,0.8-3.97c-0.15-0.06-0.29-0.12-0.44-0.18c-0.5,0.98-1.01,1.95-1.51,2.93c-0.09-0.03-0.18-0.06-0.27-0.09
		c0.22-0.72,0.44-1.45,0.64-2.18c0.25-0.9,0.57-1.8,0.71-2.72c0.12-0.8,0.02-1.63-0.32-2.54c-0.48,0.91-0.96,1.83-1.44,2.74
		c-0.11-0.02-0.22-0.04-0.33-0.06c0.15-1.72,0.3-3.45,0.45-5.26c7.33-1.68,14.67-3.36,22.08-5.06c0.18,1.51,0.12,3.18-0.25,4.89
		c-2.91,13.47-10.92,23.55-21.32,31.99c-1.87,1.52-4.22,2.46-6.37,3.63c-1.19,0.65-2.42,1.23-3.66,1.79
		c-0.63,0.28-1.32,0.44-2.2,0.73c1.2-1.9,2.29-3.56,3.31-5.25c2.09-3.44,2.63-7.3,2.82-11.22c0.03-0.72-0.35-1.47-0.55-2.26
		c-1.68,0.32-2.43,1.14-2.71,2.61c-0.46,2.4-0.95,4.81-1.67,7.15c-1.48,4.84-4.74,8.39-8.76,11.25c-2.35,1.67-5.18,2.18-8,2.39
		c-11.78,0.89-21.88-2.85-30.23-11.24c-0.46-0.46-0.91-0.94-1.42-1.34c-0.68-0.53-1.45-0.71-2.15-0.03
		C312.25,268.41,312.35,269.17,312.83,269.77z M283.63,259.27c-1.1-0.1-1.69-0.88-2.08-1.79
		C282.25,258.07,282.94,258.67,283.63,259.27z M231.4,215.25c0.2,0.87,0.89,1.11,1.64,0.58c3.52-2.52,7.02-5.06,10.53-7.59
		c0.54-0.39,1.09-0.83,0.76-1.59c-0.34-0.8-1.02-0.95-1.81-0.71c-0.34,0.1-0.67,0.21-0.94,0.3c-1.65-4.59-3.27-9.09-4.94-13.73
		c0.94-0.63,1.88-1.26,2.93-1.98c1.23,3.71,2.52,7.2,3.51,10.78c0.52,1.86,2.19,2.78,2.93,4.41c0.25,0.54,1.18,0.27,1.32-0.36
		c0.08-0.34,0.05-0.72-0.01-1.07c-0.73-4.61-2.11-8.98-4.73-12.89c-0.37-0.55-1.05-0.9-1.57-1.35c-0.24-0.2-0.59-0.4-0.66-0.66
		c-0.36-1.29-1.26-1.2-2.23-0.93c-0.34,0.09-0.68,0.26-0.98,0.44c-3.93,2.31-7.71,4.81-10.69,8.35c-0.55,0.65-1.25,1.16-2.17,2
		c-0.79-2.55-1.49-4.8-2.2-7.11c5.22-3.23,9.95-6.92,15.38-9.51c1.56-0.74,2.98-0.99,4.65-0.02c1.32,3.89,2.67,7.92,4.06,11.93
		c1.77,5.11,3.6,10.2,5.37,15.31c0.73,2.1,0.32,3.57-1.52,4.87c-2.71,1.92-5.54,3.65-8.27,5.54c-1.41,0.98-2.73,2.09-4.02,3.23
		c-0.51,0.45-0.89,0.56-1.52,0.29c-2.4-1.04-4.38-2.43-5.17-5.13c-0.42-1.43-1.1-2.79-1.68-4.2c0.75-0.16,1.35-0.29,2.05-0.44
		C231.42,214.37,231.3,214.83,231.4,215.25z M221.52,173.3c2.18,0.98,3.46-0.12,4.6-1.83c0.7-1.04,1.6-1.94,2.2-3.17
		c-0.5,0.15-1,0.3-1.71,0.51c0.51-0.82,1-1.44,1.28-2.14c0.23-0.57,1.4-1.24-0.04-1.91c0.6-1,1.22-2.01,2.01-3.31
		c-0.98,0.21-1.64,0.35-2.29,0.49c1.45-0.95,0.57-2.54,0.92-3.78c0.36-1.29,1.12-2.11,1.82-3.05c0.41-0.55,1.02-0.95,1.67-1.54
		c0.47,3.56,0.78,7.06,1.42,10.49c0.83,4.46,1.88,8.88,2.92,13.3c0.22,0.94,0.81,1.78,1.3,2.82c-0.58,0.13-1.19,0.26-1.6,0.35
		c-1.16-2.63-2.19-5.16-3.38-7.62c-1.02-2.11-2.02-2.34-3.93-1.05c-1.6,1.08-3.13,2.29-4.73,3.37c-1.09,0.74-1.41,1.72-1.39,2.96
		c0.02,1.12-0.11,2.23-0.47,3.38c-0.5-2.72-1-5.43-1.51-8.22C221.12,173.33,221.36,173.23,221.52,173.3z M220.37,171.46
		c-0.27-1.59-0.55-3.18-0.86-4.99c0.58,0.19,0.94,0.32,1.01,0.34c0.32,1.09,0.58,1.94,0.96,3.21c-0.1,0.19-0.41,0.81-0.72,1.42
		C220.62,171.45,220.49,171.46,220.37,171.46z M250.52,218.54c2.8,4.35,5.44,8.87,8.5,13.09c3.13,4.32,6.59,8.42,10.06,12.48
		c3.42,4.01,7.04,7.85,10.57,11.76c-0.05,0.08-0.09,0.15-0.14,0.23c-0.44-0.31-0.9-0.61-1.32-0.94c-5.25-4.06-9.38-9.19-13.62-14.21
		c-4.54-5.37-8.42-11.18-11.8-17.34c-0.67-1.23-1.8-2.2-2.66-3.33C249.65,219.7,249.2,219.02,250.52,218.54z M396.07,172.35
		c0.12-0.01,0.25-0.03,0.37-0.04c0.21,1.52,0.43,3.04,0.64,4.56c-0.15,0.03-0.3,0.05-0.46,0.08c-0.11-0.61-0.26-1.21-0.33-1.83
		C396.19,174.2,396.14,173.28,396.07,172.35z M417.74,225.46c-0.02-1.42,0.51-2.28,1.93-2.95c4.54-2.15,8.99-4.52,13.41-6.77
		c3.56,3.72,7.71,6.03,13.43,6.12c-0.82,0.41-1.24,0.7-1.69,0.84c-3.85,1.17-7.72,2.31-11.58,3.46c-0.21,0.06-0.46,0.03-0.63,0.13
		c-3.55,2.11-7.41,1.02-11.15,1.1c-1.2,0.02-2.41-0.22-3.71-0.35C417.74,226.44,417.74,225.95,417.74,225.46z M372.52,237.92
		c0.05,1.37-0.5,2.49-0.97,3.65C371.44,238.4,371.44,238.4,372.52,237.92z M349.67,260.92c-3.37,1.35-6.7,2.39-10.44,1.37
		c-6.28-1.71-11.66-4.91-16.38-9.31c-4.25-3.95-8.17-8.17-11.24-13.13c-1.05-1.7-2.38-3.24-3.88-5.25c1,0.12,1.58,0.13,2.12,0.27
		c4.18,1.09,8.36,2.18,12.52,3.32c9.23,2.53,16.91,7.67,23.58,14.37c1.82,1.83,3.38,3.96,3.2,6.84
		C349.13,259.84,349.45,260.3,349.67,260.92z M377.88,271.95c-1.03,1.18-1.92,2.26-2.88,3.27c-1.4,1.46-2.86,2.85-4.28,4.29
		c-0.79,0.8-1.68,1.32-3.03,1.34c-0.48-0.96-0.99-1.96-1.44-2.85C370.12,275.98,373.88,274.03,377.88,271.95z M328.2,297.28
		c1.57,1.08,3.31,1.71,5.17,2.1c5.63,1.18,11.16,0.77,16.68-0.7c3.1-0.82,5.64-2.53,8.01-4.56c0.32-0.27,0.67-0.64,0.77-1.02
		c0.87-3.41,2.08-6.77,1.72-10.37c-0.08-0.81-0.51-1.59-0.85-2.35c-0.22-0.5-0.58-0.95-0.92-1.49c1.15,0.08,2.14,0.15,3.33,0.23
		c1,3.58,0.53,7.09-0.06,10.58c-0.26,1.56-0.82,3.07-1.14,4.62c-0.54,2.59-2.45,3.87-4.66,4.61c-4.23,1.42-8.48,2.85-12.95,3.36
		c-5,0.57-9.94,0.65-14.58-1.79c-0.57-0.3-1.19-0.51-1.81-0.72c-0.27-0.09-0.57-0.05-0.86-0.07c-3.56-3.89-2.86-12.53-0.98-19.1
		c1.32,0.52,2.63,1.04,4.06,1.6c-0.79,2.97-1.59,5.87-2.33,8.78c-0.23,0.9-0.28,1.84-0.47,2.74
		C325.98,295.45,326.95,296.43,328.2,297.28z M337.84,287.77c3.67,0.95,7.29,0.44,10.84-0.69c1.97-0.63,3.9-1.4,6.14-2.21
		c-1.23,1.99-2.77,3.2-4.92,3.8c-5.22,1.47-10.35,1.31-15.48-0.39c-1.13-0.37-2.35-0.46-3.74-0.72c0.08-0.45,0.18-1.04,0.27-1.56
		c0.27-0.08,0.41-0.17,0.51-0.14C333.59,286.51,335.69,287.22,337.84,287.77z M336.31,284.05c1.98,0,3.96,0.08,5.92-0.02
		c2.07-0.11,4.12-0.4,6.19-0.61C344.39,285.2,340.37,285.16,336.31,284.05z M353.38,340.57c-0.46-0.22-0.94-0.43-1.39-0.67
		c-2.57-1.31-5.13-2.63-7.7-3.93c-4.07-2.06-8.45-2.72-12.94-3.09c-6.45-0.54-12.82,0.19-19.21,0.8c-2.14,0.21-4.28,0.43-6.61,0.67
		c1.68-4.36,3.52-8.6,6.79-12.02c2.39-2.5,4.9-4.9,7.34-7.36c0.59-0.59,1.12-1.23,1.49-1.64c2.22,1.37,4.38,2.93,6.73,4.12
		c7.3,3.69,13.54,8.76,19.43,14.34C349.93,334.28,351.5,337.45,353.38,340.57z M395.1,254.02c3.72-7.68,6.65-15.61,7.79-24.15
		c3.9-1.64,7.86-3.31,11.82-4.97c0.12,0.09,0.23,0.17,0.35,0.26c-0.2,0.45-0.27,1.08-0.62,1.32c-1.24,0.89-1.46,2.05-1.25,3.43
		c0.08,0.5,0.09,1.01,0.09,1.51c-0.01,2.04,0.99,3.48,2.8,4.23c1.52,0.63,2.33,1.72,3.02,3.14c2.11,4.35,4.33,8.63,6.51,12.94
		c0.26,0.51,0.51,1.02,0.76,1.53c-1.24,0.07-2.53-0.16-3.52,0.29c-0.95,0.43-1.59,1.55-2.7,2.72c-1.25-0.16-2.94-0.49-4.65-0.56
		c-5.19-0.21-10.38-0.39-15.57-0.42C398.21,255.29,396.71,254.9,395.1,254.02z M400.72,143.7c1.51,6.12,4.42,11.59,8.09,16.65
		c0.86,1.18,0.87,2.13,0.28,3.34c-0.85,1.74-1.9,3.23-3.77,3.99c-0.74,0.3-1.24,0.84-0.89,1.69c0.32,0.79,1.07,0.97,1.82,0.8
		c2.17-0.47,3.77-1.75,4.83-3.69c0.3-0.55,0.51-1.14,0.8-1.79c1.18,1.43,2.2,2.84,3.4,4.07c1,1.03,2.13,1.96,3.34,2.73
		c1.19,0.76,1.93,0.41,2.63-0.82c0.27-0.47,0.58-0.98,1.01-1.29c1.64-1.17,2.75-2.74,3.64-4.5c2.16-4.23,3.2-8.8,3.95-13.44
		c0.06-0.34,0.11-0.68,0.18-1.17c2,0.18,3.81-0.18,5.41-1.27c1.37-0.93,1.49-1.44,0.73-3.05c-0.92,0.31-1.86,0.62-2.79,0.92
		c-0.96,0.31-1.93,0.65-2.84,0c-0.21-2.78-0.33-5.51-0.65-8.22c-0.48-4.01-2.25-7.59-4.08-11.12c-0.5-0.97-1.22-1.95-2.65-2.1
		c-0.5,1.55-0.17,2.92,0.27,4.29c0.88,2.75,1.91,5.46,2.55,8.27c1.28,5.68,0.64,11.37-0.66,16.96c-0.67,2.86-1.76,5.63-2.84,8.38
		c-0.66,1.68-1.76,3.14-3.41,4.29c-0.4-0.38-0.86-0.72-1.18-1.16c-2.8-3.85-5.75-7.62-8.33-11.61c-4.04-6.23-5.92-13.27-7-20.54
		c-0.52-3.5-1.05-7.01-0.46-10.56c0.21-1.28,0.63-2.52,0.79-3.8c0.39-3.23,2.58-4.11,5.38-4.39c3.78-0.38,7.21,0.59,10.2,2.8
		c2.49,1.84,4.75,4,7.09,6.03c1.01,0.88,1.74,2.09,3.32,2.25c0.45,0.05,0.87,0.87,1.2,1.4c3,4.86,6.04,9.7,9.87,13.96
		c2.37,2.63,4.84,5.17,7.35,7.67c1.49,1.48,2.27,1.34,3.35-0.3c-3.68-3.13-6.72-6.87-9.59-10.7c-5.91-7.89-11.07-16.23-13.93-25.79
		c-1.55-5.2-2.77-10.48-2.72-15.95c0.02-1.87,0.23-3.73,0.37-5.83c0.64,0.33,1.15,0.54,1.61,0.84c7.69,5.01,14.43,11.02,19.96,18.42
		c6.23,8.34,12.69,16.53,17.89,25.55c4.25,7.37,9.83,13.68,14.91,20.39c7.13,9.41,12.86,19.51,15.96,30.99
		c0.39,1.45,0.95,2.84,1.48,4.42c-0.37,0.29-0.86,0.68-1.37,1.06c-3.17,2.4-6.37,4.76-9.5,7.2c-7.54,5.89-15.64,10.88-24.11,15.29
		c-0.88,0.46-1.89,0.74-2.87,0.89c-3.97,0.57-7.94,1.11-11.93,1.54c-1.86,0.2-3.76,0.32-5.61,0.12c-1.15-0.12-2.26-0.85-3.34-1.41
		c-1.01-0.52-1.95-1.18-3.03-1.84c0.94-0.66,1.9-1.29,2.81-1.96c3.72-2.74,7.42-5.5,11.15-8.22c0.37-0.27,0.89-0.46,1.35-0.49
		c5.99-0.39,11.11-3.12,15.84-6.43c2.74-1.91,4.99-4.58,7.28-7.07c2.44-2.66,3.66-6.07,4.72-9.42c1.02-3.22,0.73-6.63-0.44-9.8
		c-1.16-3.14-3.9-4.77-6.83-5.88c-4.95-1.87-9.95-1.37-14.83,0.36c-3.15,1.12-5.93,2.89-8.52,5.05c-2.34,1.95-4.8,3.75-6.37,6.41
		c-1.27,2.16-2.33,4.44-3.55,6.78c-10.94,2.03-28.33-1.11-36.5-4.93c0.38-6.46-1.87-12.44-3.91-18.45
		c-1.04-3.08-2.05-6.17-3.25-9.18c-0.87-2.2-2.03-4.29-3.14-6.59c3.19-0.65,6.38-1.31,9.66-1.98
		C400.45,143.05,400.64,143.36,400.72,143.7z M447.4,174.58c-0.06-2.61,2.1-4.1,5.41-4.35c2.33,0.02,3.95,1.74,3.95,4.22
		c0.01,3.03-1.81,5.38-4.15,5.38C449.74,179.82,447.47,177.5,447.4,174.58z M468.49,170.89c-0.26-0.08-0.49-0.31-0.67-0.53
		c-0.56-0.7-0.57-1.48-0.14-2.22c0.44-0.77,1.08-1.04,2.01-0.74c2.17,0.7,4.08,1.83,5.72,3.38c1.03,0.97,1.12,2.37,1.07,3.64
		c-0.18,4.62-1.19,8.99-4.18,12.71c-1.42,1.77-2.6,2.4-4.59,2.32c-4.47-0.18-6.74-4.71-4.45-8.89c0.86-1.58,2.12-2.75,3.72-3.49
		c1.72-0.8,2.33-2.21,2.58-3.94C469.72,172.08,469.66,171.26,468.49,170.89z M387.87,101.13c5.59,2.92,9.44,7.46,12.12,13.08
		c0.2,0.43,0.39,1,0.27,1.41c-0.43,1.43-1,2.81-1.6,4.42c-0.51-0.56-0.9-0.95-1.23-1.37c-2.95-3.73-5.77-7.58-8.89-11.16
		c-1.81-2.09-2.17-4.55-2.72-7.26C386.5,100.53,387.21,100.78,387.87,101.13z M357.15,39.53c5.93-0.8,11.34,0.62,16.14,4.11
		c8.04,5.87,12.21,13.83,12.4,21.22c0.07,8.32-1.41,13.64-4.52,18.4c-3.24,4.98-8.08,7.78-13.83,8.86
		c-9.48,1.77-17.51-1.3-23.74-8.39c-7.75-8.82-9.78-19.05-5.19-30.02C341.85,45.53,348.23,40.73,357.15,39.53z M382.53,105.18
		c-5.99-0.13-11.59-1.71-17.6-2.33c1.88-2.22,3.1-4.52,5.82-5.6c2.82-1.13,5.24-3.03,7.44-5.15c0.45-0.44,0.96-0.82,1.81-1.54
		C380.88,95.63,381.67,100.24,382.53,105.18z M345.57,40.06c-7.65,5.39-11.6,12.51-12.73,21.4c-2.46-0.71-4.77-1.47-7.02,0.16
		C326.76,52.9,336.02,42.57,345.57,40.06z M328.36,88.83c-2.83,0.58-4.18,1.37-6.44,3.78c-4.24-6.74-6.67-13.65-5.1-21.52
		c0.59-2.97,1.12-5.96,2.52-8.68c0.69-1.34,1.47-2.62,3.25-3.43C319.78,69.99,321.6,79.9,328.36,88.83z M181.55,164.81
		c-0.15,0.1-0.36,0.08-0.8,0.18c0.29-0.49,0.44-0.78,0.63-1.05c4-5.48,8.04-10.94,11.98-16.46c0.55-0.77,0.81-1.85,0.94-2.82
		c0.87-6.58,1.46-13.18,1.49-19.84c0.03-7.3,0.29-14.58,2.4-21.67c1.04-3.48,2.41-6.8,4.3-9.89c3.07-5.01,6.45-9.77,10.75-13.81
		c4.79-4.5,9.45-9.17,14.5-13.36c3.59-2.98,7.62-5.49,11.67-7.85c9.51-5.53,19.52-10,30.21-12.72c10.6-2.7,21.4-4.21,32.36-3.67
		c8.89,0.43,17.64,1.78,26.04,4.9c0.27,0.1,0.51,0.26,0.78,0.4c-1.29,2.1-2.55,4.19-3.87,6.24c-0.24,0.38-0.72,0.68-1.16,0.85
		c-5.23,2.07-8.71,5.68-10.39,11.12c-1.4,4.53-1.75,9.02-0.69,13.66c1.13,4.97,2.89,9.67,5.54,14.03c1.58,2.59,3.55,4.72,6.38,5.98
		c0.98,0.43,1.9,0.98,2.86,1.86c-1.52,0.12-3.03,0.22-4.55,0.36c-5.68,0.53-11.36,0.96-17.02,1.63c-5.73,0.68-11.46,1.43-17.13,2.47
		c-9.23,1.68-18.23,4.25-27.16,7.13c-8.65,2.79-17.19,5.88-25.5,9.55c-10.62,4.69-21.21,9.44-31.83,14.12
		c-1.44,0.64-2.99,1.05-4.49,1.56c-0.55,0.18-1.12,0.31-1.65,0.51c-0.67,0.26-1.18,0.78-0.88,1.49c0.18,0.43,0.75,0.82,1.23,0.99
		c0.44,0.16,1.02,0.1,1.5-0.02c2.3-0.6,4.68-1,6.85-1.92c13.02-5.51,25.89-11.35,38.99-16.66c12.9-5.23,26.22-9.24,39.85-12.19
		c7.76-1.68,15.62-2.73,23.51-3.58c12.66-1.36,25.37-1.81,38.09-1.54c4.67,0.1,9.34,0.83,13.98,1.45
		c6.07,0.81,12.11,1.86,18.19,2.68c1.79,0.24,3.73,0.71,5.43-0.86c0.8,0.86,1.61,1.58,2.25,2.43c3.35,4.43,6.64,8.92,10.01,13.34
		c0.7,0.92,1.01,1.82,1.02,2.97c0.02,2.29,0.19,4.57,0.31,7c-2.9-0.63-5.7-1.21-8.49-1.85c-8.59-1.97-17.25-3.51-26.03-4.22
		c-7.2-0.58-14.42-0.82-21.62-1.33c-7.7-0.54-15.41-1.04-23.01-2.53c-1.47-0.29-2.83-1.11-4.3-1.39c-1.79-0.35-3.06-1.34-4.33-2.53
		c-2.39-2.24-5.11-3.98-8.11-5.32c-6.04-2.69-10.36-1.46-15.05,2.74c-1.34,1.2-2.5,2.6-3.81,3.97c-6.16-0.62-12.1,0.98-18.07,2.28
		c-2.81,0.61-5.61,1.36-8.34,2.25c-7.22,2.35-13.29,6.58-18.65,11.87c-3.54,3.49-7.48,6.34-12.2,8c-2.44,0.86-4.9,1.68-7.31,2.61
		c-7.06,2.73-14.11,5.47-21.14,8.27C192.28,158.88,186.71,161.43,181.55,164.81z M176.9,226.81c-3.06-5.97-4.36-12.36-4.14-19.05
		c0.12-3.54,1.52-6.73,2.96-9.89c2.88-6.3,7.08-11.72,11.32-17.13c1.82-2.33,3.67-4.66,5.34-7.1c1.66-2.44,3.26-4.95,4.61-7.57
		c0.97-1.89,1.48-4.01,2.37-6.53c5.26-2.08,11.07-4.39,16.95-6.72c0.06,12.13,2.3,23.71,4.98,35.27c-0.04,0.07-0.08,0.22-0.19,0.3
		c-2.55,1.98-2.75,2.18-1.75,5.26c2.56,7.88,5.25,15.73,7.93,23.57c0.39,1.15,1.01,2.23,1.52,3.35c1.02,2.22,2.59,3.79,5.03,4.39
		c0.48,0.12,1.12,0.26,1.35,0.61c0.73,1.13,1.84,0.96,3.06,1.06c4.35,8.27,10.51,15.25,16.69,22.22
		c6.15,6.93,13.21,12.9,20.78,19.05c-0.91-0.19-1.31-0.24-1.7-0.35c-22.26-6.78-44.32-14.16-66.18-22.13
		c-7.74-2.82-15.01-6.67-22.49-10.07C181.3,233.51,178.81,230.52,176.9,226.81z M174.4,239.91c2.03-0.94,4.06-1.86,6.17-2.83
		c3.61,1.81,7.29,3.65,10.95,5.5c8.98,4.53,18.54,7.57,27.97,10.98c21.03,7.58,42.52,13.74,63.7,20.84
		c6.82,2.29,13.46,5.13,20.18,7.74c0.57,0.22,1.08,0.58,1.82,0.98c-1.52,0.61-2.78,1.09-4.01,1.61c-4.89,2.08-8.18,5.69-9.65,10.75
		c-1.21,4.15-2.1,8.4-3.03,12.62c-0.93,4.23-1.72,8.49-2.58,12.73c-0.1,0.49-0.24,0.98-0.41,1.46c-2.38,6.55-6.39,12.03-11.17,17.22
		c-1.17-1.91-2.31-3.58-3.27-5.35c-5.69-10.46-12.68-20-20.3-29.11c-3.94-4.71-7.75-9.53-11.61-14.32
		c-0.99-1.23-1.99-2.45-2.89-3.74c-5.62-8.1-12.53-14.92-20.45-20.75c-2.21-1.63-4.4-3.29-6.58-4.96
		c-3.63-2.77-7.55-5.01-11.68-6.98c-5.86-2.79-11.53-5.98-17.28-8.99c-1.98-1.04-3.98-2.04-5.94-3.11
		c-0.46-0.25-1.04-0.64-1.16-1.08C172.94,240.22,173.85,240.16,174.4,239.91z M230.06,318.93c1.35-3.3-0.35-6.04-1.74-8.75
		c-0.61-1.19-0.88-2.09-0.32-3.38c0.94-2.16,1.03-4.32-0.68-6.29c-0.43-0.5-0.59-1.31-0.72-2c-1.82-9.1-5.18-17.55-10.35-25.28
		c-0.08-0.12-0.11-0.26-0.16-0.4c0.07-0.09,0.14-0.17,0.21-0.26c0.33,0.24,0.67,0.46,0.98,0.73c5.01,4.49,9.74,9.24,14.26,14.23
		c8.9,9.82,16.36,20.76,24.64,31.06c0.33,0.41,0.58,0.99,0.64,1.52c0.26,2.36,0.53,4.73,0.61,7.09c0.12,3.82,0.11,7.65,0.12,11.47
		c0,0.49-0.2,0.97-0.28,1.36c-10.11,0-20.13,0-30.43,0c0.54-2.66,1.06-5.02,1.49-7.39c0.79-4.33,1.7-8.64,1.71-13.08
		C230.03,319.36,229.99,319.12,230.06,318.93z M99.3,417.32c-4.22-4.57-8.35-9.21-12.51-13.83c-0.47-0.53-0.9-1.1-1.65-2.02
		c1.19,0,2,0.01,2.81,0c3.25-0.04,6.51,0.1,9.73-0.16c5.39-0.43,10.77-1.05,16.14-1.71c9.74-1.2,19.39-2.78,28.74-5.94
		c7.03-2.37,14.24-4.21,21.27-6.56c5.88-1.96,11.63-4.29,17.42-6.53c1.4-0.54,2.69-1.36,4.25-2.16c3.75,6.51,6.82,13.45,10.15,20.47
		c-1,0.48-1.82,0.89-2.66,1.28c-12.39,5.79-25.39,9.85-38.55,13.42c-5.77,1.57-11.6,2.93-17.46,4.1c-4.45,0.88-8.98,1.38-13.49,1.91
		c-4.95,0.58-9.9,1.08-14.87,1.44C103.11,421.44,103.06,421.39,99.3,417.32z M111.34,447.21c-0.33-0.15-0.65-0.3-0.97-0.45
		c-0.06-0.03-0.09-0.11-0.34-0.41c0.34-1.83,0.75-3.87,1.1-5.91c0.18-1.06,0.33-2.14,0.36-3.21c0.04-1.71-0.42-2.15-2.09-2.33
		c-0.69-0.08-1.37-0.25-2.08-0.39c0.8-1.39,1.51-2.61,2.14-3.72c3.97,0.44,7.96,0.89,12,1.33c0.04,0.5-0.13,1.38,0.24,1.87
		c0.36,0.48,1.24,0.67,1.93,0.8c6.37,1.17,12.64,0.84,18.76-1.36c1.63-0.59,3.29-1.12,4.84-1.86c1.66-0.8,3.25-1.78,4.8-2.78
		c0.88-0.57,0.87-1.59,0.04-2.18c-1.51-1.07-2.9-1.75-5.06-1.09c-3.42,1.04-7.05,1.48-10.61,1.96c-6.09,0.82-12.23,1.13-18.37,0.89
		c-2.02-0.08-4.02-0.42-6.04-0.5c-2.6-0.1-4.11-1.75-5.86-3.85c31.82-2.02,61.96-9.41,91.14-21.83c1.07,2.57,2.14,5.09,3.15,7.62
		c0.18,0.45,0.36,1.07,0.19,1.46c-0.6,1.4,0.09,2.34,0.89,3.33c2.04,2.52,4.05,5.06,6.14,7.67c-3.26,4.39-7.2,8.18-11.41,11.73
		c-8,6.74-17.39,10.69-27.17,13.94c-6.38,2.12-12.83,4.01-19.53,4.58c-4.59,0.38-9.24,0.29-13.86,0.2
		C127.19,452.51,119.07,450.68,111.34,447.21z M126.93,431.92c1.1,0,2.21,0,3.31,0c0,0.06,0,0.13,0.01,0.19c-1.1,0-2.21,0-3.31,0
		C126.94,432.05,126.94,431.98,126.93,431.92z M299.34,437.43c1,0.79,1.99,1.57,3.06,2.42c-0.29,0.64-0.46,1.19-0.76,1.66
		c-1.87,2.99-3.8,5.95-5.65,8.96c-0.7,1.13-1.55,1.59-2.87,1.23c-0.88-0.24-1.8-0.34-2.87-0.54c0.93-1.27,1.82-2.45,2.68-3.66
		c1.04-1.47,2.02-2.99,3.07-4.45c0.37-0.51,0.8-1.07,1.34-1.35C299.1,440.8,299.9,439.54,299.34,437.43z M289.34,436.51
		c-0.58,0.11-1.37-0.33-1.93-0.71c-4.65-3.17-9.26-6.41-13.9-9.6c-11.06-7.61-22.11-15.23-33.22-22.78
		c-4.9-3.33-10.11-6.12-15.57-8.46c-0.86-0.37-1.68-0.83-2.47-1.33c-4.22-2.67-8.57-4.96-13.51-6.15c-1.78-0.43-3.31-1.93-4.95-2.95
		c0.05-0.14,0.1-0.29,0.16-0.43c2.78,0.67,5.61,1.2,8.35,2.04c11.06,3.37,21.75,7.67,31.99,13.03c4.02,2.1,7.92,4.47,11.7,6.97
		c8.07,5.34,16.13,10.7,23.99,16.33c6.16,4.41,12.01,9.25,18,13.91c0.15,0.12,0.23,0.34,0.53,0.8
		C295.34,436.03,292.37,435.93,289.34,436.51z M276.4,504.65c-1.7,0.47-3.04,1.13-4.07,2.56c-0.8,1.1-1.94,1.52-3.37,1.57
		c-6.2,0.23-12-1.36-17.64-3.71c-1.04-0.43-1.69-1.04-2-2.29c-0.75-3.06-2.68-5.4-5.22-7.22c-0.58-0.42-1.19-0.8-1.99-1.34
		c0.6-0.95,1.19-1.89,1.85-2.94c18.33,5.63,37.2,7.95,56.36,10.55c0,4.13,0,8.16,0,12.45c-3.5-0.86-6.86-2.59-10.55-1.28
		c-0.27-0.81-0.46-1.42-0.68-2.02C287.01,505.39,282.18,503.07,276.4,504.65z M285.35,519.05c-1.71,2.75-4.24,4.22-6.84,4.34
		c-4.66-0.03-7.94-4.01-7.18-7.93c0.27-1.41,0.72-2.79,1.01-4.19c0.36-1.75,1.46-2.76,3.09-3.25c3.08-0.93,6.1-1.26,8.71,1.19
		C286.98,511.86,287.47,515.64,285.35,519.05z M217.48,528.01c-2.69-0.48-5.44-0.96-8.54-1.51c0.98-1.6,1.68-2.91,2.53-4.11
		c6.36-8.96,12.19-18.25,17.52-27.85c0.73-1.31,1.42-2.65,2.12-3.98c0.45-0.87,0.41-1.7-0.38-2.34c-0.73-0.59-1.48-1.17-2.28-1.64
		c-4.78-2.79-8.1-6.88-10.49-11.79c-0.08-0.17,0.07-0.46,0.16-0.98c0.87,0.77,1.54,1.36,2.21,1.97c3.16,2.86,6.26,5.77,9.48,8.56
		c2.99,2.59,6.62,4.05,10.66,5.4C232.45,502.29,225.9,515.56,217.48,528.01z M234.69,511.86c-0.93-0.27-2-0.43-1.53-2.1
		C233.78,510.61,234.24,511.23,234.69,511.86z M162.77,487.28c-1.68,1.66-3.28,3.24-4.86,4.8c-0.15-0.11-0.22-0.15-0.26-0.2
		c-0.04-0.05-0.08-0.15-0.05-0.18c2.74-3.58,5.48-7.16,8.5-11.09c-0.67,3.05-1.24,5.63-1.82,8.26
		C163.81,488.39,163.39,487.95,162.77,487.28z M163.58,492.21c-0.15,0.92-0.3,1.84-0.45,2.77c-0.19-0.03-0.39-0.07-0.58-0.1
		c0.21-0.91,0.43-1.83,0.64-2.74C163.32,492.16,163.45,492.18,163.58,492.21z M155.42,484.88c-4.17,5.14-8.65,9.9-13.94,13.87
		c-2.89,2.17-5.86,4.22-9.39,5.26c-0.41,0.12-0.83,0.23-1.26,0.29c-0.27,0.04-0.55,0.01-1.31,0.01c2.25-7.12,4.39-13.93,6.57-20.73
		c0.22-0.67,0.6-1.31,1-1.9c0.86-1.25,1.73-2.5,2.7-3.66c4.52-5.36,7.74-11.49,10.57-17.84c0.49-1.1,0.83-2.28,1.32-3.67
		c7.32-1.05,14.73-2.78,22.37-5.38c-0.38,1.41-0.54,2.54-0.97,3.55C168.49,465.5,162.87,475.7,155.42,484.88z M167.86,494.26
		c1.28-6.8,2.43-13.64,3.93-20.39c0.84-3.78,2.06-7.52,3.5-11.12c1.38-3.47,2.26-7,2.51-10.68c0.12-1.81,0.74-2.76,2.5-3.47
		c7.74-3.09,15.08-6.91,21.38-12.49c0.1-0.09,0.26-0.11,0.57-0.23c0.08,0.58,0.19,1.11,0.22,1.64c0.39,8.23-1.04,16.09-4.74,23.5
		c-2.35,4.71-4.46,9.55-6.94,14.19c-3.6,6.73-8.05,12.86-14,17.74c-2.73,2.24-5.66,4.24-8.51,6.33c-0.33,0.24-0.73,0.39-1.42,0.75
		C167.23,497.9,167.52,496.07,167.86,494.26z M204.84,454.27c1.16-3.83,1.86-7.7,1.75-11.71c-0.02-0.65,0.01-1.3,0.04-1.95
		c0.01-0.11,0.13-0.22,0.2-0.33c9.92,3.82,19.98,7.23,30.28,9.81c0.02,0.21,0.09,0.37,0.03,0.47c-2.54,4.11-5.11,8.21-7.65,12.32
		c-0.67,1.08-1.54,1.86-2.73,2.34c-0.87,0.35-1.65,0.9-2.52,1.24c-5.67,2.22-10.08,6.08-14.08,10.96c-4.07-1.68-8.21-3.4-12.52-5.18
		c0.43-1.01,0.77-1.87,1.15-2.7C201.1,464.56,203.25,459.53,204.84,454.27z M195.89,475.57c4.16,1.72,8.07,3.34,12.13,5.01
		c-2.01,3.45-4.06,6.96-6.18,10.6c-1.93-0.95-3.79-1.9-5.67-2.8c-1.04-0.5-2.1-0.93-3.16-1.39c-1.5-0.64-2.78-0.3-3.95,0.83
		c-1.66,1.6-3.37,3.16-5.07,4.72c-0.3,0.28-0.64,0.51-1.09,0.65C187.68,487.66,192.3,482.01,195.89,475.57z M203.41,527.63
		c3.57,1.16,6.84,2.23,10.27,3.35c-0.4,0.72-0.83,1.52-1.28,2.3c-10.76,18.71-21.52,37.42-32.27,56.14
		c-0.56,0.97-0.95,2.04-1.55,3.36c-3.92,1.04-8.05,0.82-12.37-1.08C178.66,570.25,191.06,548.89,203.41,527.63z M235.93,504.98
		c0.21-0.38,0.41-0.75,0.63-1.12c0.79-1.31,1.28-1.55,2.38-1.17c1.25,0.43,2.1,1.57,2.02,2.72c-0.3,1.7-1.11,3.09-2.53,4.08
		c-0.93,0.64-1.46,0.51-2.19-0.41C235.17,507.75,235.08,506.53,235.93,504.98z M242.66,509.33c3.03-4.63,0.9-8.48-2.77-9.64
		c-0.2-0.06-0.37-0.21-0.74-0.42c0.47-0.73,0.85-1.32,1.22-1.89c4.62,1.74,7.21,6.55,5.72,10.46c-1.72,4.52-6.22,7.39-9.84,5.07
		C239.38,513.01,241.23,511.52,242.66,509.33z M243.28,482.73c-0.12,0.97-0.58,1.9-1.04,3.33c-1.88-0.92-3.42-1.64-4.93-2.42
		c-0.76-0.39-0.72-1.27-0.29-1.66c1.27-1.17,1.45-2.79,1.94-4.25c0.89-2.66,1.58-5.38,2.42-8.06c0.23-0.74,0.65-1.44,1.07-2.11
		c3.85-6.1,7.8-12.14,11.54-18.31c2.24-3.69,4.16-7.58,6.22-11.38c0.65-1.2,1.4-2.37,1.94-3.62c0.43-1.01,1.08-1.47,2.28-1.45
		c0.47,0.45,1.03,0.98,1.56,1.49c-2.12,3.38-4.17,6.59-6.16,9.84c-2.72,4.42-5.47,8.83-8.06,13.33c-1.87,3.24-3.49,6.63-5.22,9.95
		c-0.2,0.38-0.27,0.89-0.56,1.16c-1.71,1.59-1.76,3.66-1.9,5.78C243.93,477.15,243.64,479.94,243.28,482.73z M266.84,438.69
		c5.42,4.39,10.76,8.57,15.91,12.96c1.86,1.59,3.64,2.77,6.17,2.31c0.31-0.06,0.66,0.08,0.98,0.26
		c-10.27,0.06-20.31-1.81-30.74-3.48C261.7,446.55,264.07,442.56,266.84,438.69z M223.43,406.13c1.68,0.34,3.07,1.05,4.37,2.17
		c6.62,5.7,13.27,11.36,19.92,17.03c0.98,0.84,2.02,1.61,3.28,2.61c-3.64,6.07-7.33,12.23-11.07,18.46
		c-11.6-2.33-22.35-6.9-33.49-10.35c-0.22-1.22-0.53-2.34-0.57-3.47c-0.02-0.47,0.5-0.98,0.83-1.43c1.43-1.99,2.95-3.92,4.31-5.96
		c1.36-2.06,1.83-4.33-0.35-6.69c-2-2.17-3.91-4.42-5.85-6.65c-0.22-0.25-0.49-0.58-0.49-0.88c-0.06-2.47-1.27-4.56-2.17-6.75
		c-0.68-1.66-1.35-3.33-2.21-5.46c1.1,0.3,1.83,0.47,2.53,0.7c5.12,1.7,10.24,3.43,15.37,5.11
		C219.67,405.17,221.54,405.74,223.43,406.13z M108.92,497.4c2.5-14.71,5.92-28.88,12.68-42.2c8.05,1.62,16.28,2.2,24.58,1.84
		C143.13,469.95,123.12,491.72,108.92,497.4z M168.89,673.51c10.5,2.88,21.07,5.56,30.7,10.89c0.3,0.17,0.58,0.37,0.97,0.61
		c-0.29,0.09-0.42,0.17-0.56,0.17c-0.21,0.01-0.45,0.02-0.64-0.06c-10.66-4.67-21.9-7.58-33.06-10.68c-0.04-0.01-0.04-0.13-0.1-0.33
		C166.94,673.32,167.91,673.24,168.89,673.51z M181.86,664.83c7.27,1.22,14.59,1.94,21.98,1.7c2.17-0.07,4.34-0.02,6.5-0.06
		c0.77-0.02,1.46-0.03,1.67,0.94c-0.54,1.23-1.44,1.84-2.85,1.82c-2.66-0.04-5.33,0.06-7.99-0.01c-4.84-0.13-9.68-0.22-14.5-0.54
		c-3.75-0.25-7.38-1.27-10.89-2.6c-1.58-0.6-1.61-0.8-1.06-2.52C177.11,664,179.48,664.44,181.86,664.83z M178.19,662.81
		c0-5.35,1.61-8.03,5.8-9.76c1.9-0.78,3.93-1.12,5.93-0.78c3.05,0.53,6.02,1.44,8.56,3.35c2.66,2,5.19,4.13,7.27,6.75
		c0.66,0.82,1.29,1.67,1.93,2.51C197.94,664.94,188.04,664.01,178.19,662.81z M199.37,688.13c0.45-0.19,1.1-0.12,1.59,0.04
		c1.09,0.36,2.12,0.92,3.22,1.26c1.43,0.44,2.16-0.04,2.49-1.49c0.06-0.27,0.03-0.6,0.16-0.82c0.69-1.13,0.1-1.76-0.84-2.24
		c-2.05-1.07-4.11-2.11-6.16-3.17c-0.63-0.33-1.25-0.67-1.78-1.29c0.52,0.12,1.04,0.21,1.55,0.38c2.73,0.91,5.47,1.8,8.18,2.77
		c1.03,0.37,1.98,0.99,2.92-0.13c1.18-1.4,1.25-2.24,0.14-4.07c-0.66,0.56-1.28,1.1-2.09,1.79c-11.17-4.23-23.14-6.03-35.06-8.41
		c0.35-0.93,0.59-1.57,0.87-2.29c6.26,2.36,12.95,2.61,19.35,4.23c5.37,1.37,10.77,2.67,16.15,4c0.28,0.07,0.55,0.19,0.82,0.26
		c0.7,0.18,1.44,0.12,1.54-0.67c0.05-0.37-0.49-0.97-0.9-1.21c-0.61-0.35-1.36-0.46-2.16-0.7c-0.19-1.46-0.36-2.78-0.53-4.1
		c-0.14-0.01-0.29-0.02-0.43-0.04c-0.48,1.09-0.96,2.18-1.49,3.36c-5.24-1.34-10.43-2.67-15.62-3.99c0-0.1,0-0.2,0-0.31
		c1.15,0,2.3-0.01,3.45,0c1.23,0.02,2.45,0.07,3.68,0.1c3.75,0.08,7.5,0.15,11.25,0.23c0.42,0.01,0.88-0.03,1.24,0.14
		c3.81,1.74,7.92,2.34,12,2.4c5.33,0.09,10.68-0.23,16-0.65c5.02-0.4,10.01-1.15,15.23-1.77c0.32,3.04,0.66,6.3,1.02,9.72
		c-2.02,0.2-3.86,0.42-5.71,0.57c-4.99,0.39-9.79,1.72-14.6,2.95c-8.74,2.23-17.18,5.36-25.6,8.6c-2.6,1-5.41,1.45-8.13,2.1
		c-1.77,0.42-3.13-0.28-4.05-1.79c-0.7-1.15-1.29-2.36-2.01-3.69C196.66,689.42,197.99,688.71,199.37,688.13z M194.03,688.31
		c-0.46,0.07-1.02-0.08-1.45-0.29c-8.18-3.96-16.71-7.06-25.16-10.34c-0.26-0.1-0.48-0.28-0.72-0.42c0.05-0.13,0.1-0.27,0.15-0.4
		c10.66,2.82,21.22,5.92,31.71,10.58C196.76,687.81,195.4,688.12,194.03,688.31z M180.33,669.26c-2.35,0.29-4.49-0.47-6.75-1.09
		c0.12-0.42,0.2-0.74,0.27-0.98C176.09,667.9,178.21,668.58,180.33,669.26z M130.81,676.94c0.49-0.33,1.19-0.56,1.78-0.53
		c4.32,0.22,8.64,0.55,12.96,0.79c5.48,0.31,10.96,0.61,16.44,0.83c1.61,0.06,3.06,0.25,4.5,1.13c4.75,2.92,10.02,4.76,15.12,6.95
		c3.58,1.53,7.14,3.1,10.69,4.71c0.46,0.21,0.87,0.67,1.17,1.1c0.52,0.77,0.87,1.66,1.39,2.43c1.79,2.67,4.12,4.22,7.51,3.4
		c2.79-0.68,5.68-1.11,8.36-2.09c10.84-3.97,21.78-7.57,33.11-9.83c3.6-0.72,7.27-1.03,11.19-1.57c-0.19,4.88-0.37,9.52-0.55,14.36
		c-0.29,0.12-0.71,0.37-1.17,0.5c-4.1,1.09-8.2,2.21-12.33,3.21c-1.18,0.28-2.44,0.21-3.66,0.29c-8,0.52-15.99,1.04-23.99,1.56
		c-2.52,0.16-5.05,0.27-7.56,0.51c-3.16,0.3-6.31,0.7-9.46,1.06c-1.07,0.12-2.15,0.22-3.23,0.34c-2.36,0.26-4.72,0.67-7.08,0.77
		c-5.41,0.23-10.84,0.23-16.25,0.45c-11.97,0.49-23.54-1.73-34.98-4.99c-2.42-0.69-4.98-1.05-7.23-2.09c-2.8-1.29-5.52-2.91-7-5.88
		c-0.45-0.89-0.92-1.77-1.45-2.79C122.02,686,125.37,680.63,130.81,676.94z M257.29,700.58c0.06-0.02,0.14,0.01,0.45,0.05
		c-0.39,3.54-0.78,7.09-1.18,10.78c-5.21,1.42-10.39,2.84-15.66,4.27c-0.38-0.77-0.75-1.72-1.29-2.56
		c-1.06-1.67-2.47-1.88-4.03-0.68c-0.17,0.13-0.39,0.26-0.48,0.44c-1.33,2.69-3.86,2.89-6.37,3.04c-1.94,0.11-3.9,0.15-5.85,0.08
		c-1.82-0.07-3.23-0.83-4.27-2.48c-1.05-1.67-2.07-3.43-4.28-4.05c-1.35-0.38-2.41-0.25-3.42,0.6c-0.49,0.41-0.9,0.93-1.33,1.42
		c-1.73,1.99-3.62,3.65-6.39,4.09c-1.77,0.28-3.51,0.82-5.23,1.32c-3.1,0.9-6.14,0.62-9.13-0.43c-0.52-0.18-0.96-0.61-1.44-0.9
		c-1.9-1.13-3.85-0.62-4.91,1.28c-0.89,1.59-1.03,1.63-2.87,1.44c-1-0.1-2.02-0.11-3.03-0.09c-5.44,0.13-10.8-0.66-16.19-1.16
		c-2.73-0.25-5.47-0.39-8.21-0.63c-0.85-0.07-1.7-0.24-2.52-0.46c-0.93-0.25-1.55-0.75-1.9-1.81c-0.78-2.36-2.18-2.83-4.37-1.67
		c-0.89,0.47-1.71,1.06-2.91,1.81c-4.67-1.79-9.64-3.52-14.44-5.62c-2.07-0.91-3.81-2.58-5.67-3.94c-0.64-0.47-1.14-1.16-1.82-1.53
		c-2.13-1.15-2.42-3.08-2.27-5.16c0.13-1.85,0.41-3.69,0.82-5.57c1.1,5.23,4.66,7.87,9.34,9.37c4.11,1.32,8.22,2.7,12.38,3.87
		c6.6,1.86,13.3,3.2,20.15,3.83c8.09,0.74,16.17,0.58,24.24-0.04c6.54-0.51,13.05-1.44,19.58-2.11c2.44-0.25,4.9-0.31,7.35-0.48
		c5.83-0.4,11.66-0.84,17.5-1.23c2.96-0.2,5.91-0.46,8.87-0.47c6.97-0.02,13.54-1.81,19.97-4.29
		C256.76,700.78,257.02,700.67,257.29,700.58z M260.06,656.68c-1.44,1.66-3.15,1.86-5.14,2.13c-9.29,1.25-18.62,0.68-27.93,0.73
		c-2.88,0.02-5.76-0.42-8.64-0.63c-0.94-0.07-1.87-0.12-2.81-0.15c-2.5-0.08-4.53,0.76-5.85,2.99c-0.14,0.24-0.35,0.44-0.73,0.9
		c-2.19-3.57-5.18-6.08-8.17-8.59c-3.27-2.74-7.1-4.29-11.24-4.64c-5.13-0.43-9.46,1.54-12.85,5.85c-2.41-2.01-4.83-4-7.19-6.04
		c-0.39-0.34-0.8-0.96-0.77-1.41c0.22-2.85-0.89-5.38-1.73-7.98c-0.31-0.96-0.62-1.91-0.93-2.9c0.91-0.72,1.8-0.66,2.84-0.45
		c6.13,1.28,12.26,2.61,18.44,3.67c5.82,1,11.7,1.71,17.55,2.5c10.27,1.39,20.6,1.41,30.93,1.32c7.73-0.06,15.46-0.05,23.19-0.06
		c1,0,2,0,3.24,0c-0.18,1.21-0.24,2.2-0.49,3.15c-0.4,1.53-0.12,2.82,0.97,3.99c0.58,0.62,1.02,1.37,1.6,2.17
		C262.84,654.42,261.22,655.35,260.06,656.68z M276.39,613.44c-2.02,3.08-4.04,6.16-6.07,9.23c-1.31,1.97-1.85,4.17-2.23,6.49
		c-0.26,1.6-0.77,3.24-1.54,4.65c-1.25,2.26-2.81,4.34-4.09,6.28c-4.66,0.13-9.13,0.34-13.6,0.36c-7.95,0.02-15.9,0-23.84-0.15
		c-5.13-0.09-10.26-0.29-15.37-0.71c-5.25-0.43-10.49-1.01-15.69-1.82c-8.19-1.27-16.34-2.78-24.51-4.18
		c-0.14-0.02-0.29-0.03-0.43-0.04c-2.13-0.15-3.36-1.21-4.27-3.23c-4.56-10.13-9.3-20.19-13.97-30.27c-0.39-0.84-0.74-1.71-1.3-3.04
		c1.53,0.41,2.59,0.61,3.58,0.97c8.63,3.13,17.45,5.44,26.59,6.56c5.79,0.71,11.55,1.71,17.35,2.39c5.37,0.63,10.77,1.05,16.16,1.48
		c5.9,0.46,11.81,0.85,17.71,1.22c7.78,0.49,15.57,0.88,23.35,1.4c3.81,0.26,7.61,0.87,11.42,1.06c3.16,0.15,6.34-0.08,9.51-0.15
		c0.64-0.01,1.28-0.07,2.22-0.12C276.95,612.51,276.69,612.98,276.39,613.44z M489.12,685.32c0.3,0.92,0.46,1.89,0.73,2.99
		c-3.61,1.63-6.86,3-10.04,4.54c-7.14,3.45-14.25,6.96-21.37,10.46c-4.88,2.4-10,4.07-15.25,5.4c-0.86,0.22-1.47,0.17-2.19-0.34
		c-0.88-0.62-1.85-1.12-2.8-1.63c-1.15-0.61-2.22-0.46-3.18,0.43c-0.26,0.25-0.57,0.47-0.77,0.76c-1.39,2.01-3.62,2.36-5.74,2.8
		c-4.9,1.01-9.89,1.04-14.87,1.22c-1.17,0.04-1.97-0.22-2.36-1.37c-0.07-0.2-0.18-0.4-0.28-0.58c-0.92-1.59-2.15-2.86-4.11-2.65
		c-1.99,0.22-3.11,1.67-3.78,3.47c-0.12,0.33-0.13,0.71-0.22,1.21c-2.71,0.15-5.44,0.33-8.18,0.45c-1.15,0.05-2.33-0.11-3.47,0.04
		c-2.12,0.28-3.75-0.26-4.88-2.19c-0.8-1.37-2.26-1.76-3.71-1.96c-1.98-0.27-4.03-0.8-5.81,0.65c-0.6,0.49-1.15,1.07-1.62,1.69
		c-4.19,5.52-3.71,4.88-9.85,4.85c-2.23-0.01-4.46-0.31-6.69-0.46c-0.91-0.06-1.62-0.36-2.15-1.21c-1.16-1.87-3.03-2.13-4.96-1.76
		c-0.67,0.13-1.31,0.8-1.82,1.36c-0.42,0.46-0.63,1.12-1.04,1.89c-3.42-0.81-6.83-1.62-10.3-2.45c0-4.52,0-8.91,0-13.32
		c1.55-1.17,1.45-0.99,3.13-0.06c1.21,0.67,2.72,0.98,4.13,1.12c5.16,0.54,10.33,1.1,15.51,1.37c5.62,0.29,11.26,0.35,16.89,0.34
		c3.61-0.01,7.21-0.42,10.82-0.52c4.77-0.13,9.54-0.12,14.3-0.21c7.15-0.14,14.31-0.24,21.45-0.51c3.09-0.12,6.17-0.63,9.26-0.94
		c2.36-0.24,4.74-0.4,7.1-0.67c4.83-0.54,9.46-1.89,13.97-3.67c10.26-4.04,20.53-8.06,30.79-12.09
		C487.65,683.04,488.5,683.39,489.12,685.32z M439.35,666.77c2.5-1.66,4.92-2.14,7.86-1.32c2.12,0.59,4.43,0.46,6.66,0.65
		c1.37,0.11,2.74,0.15,4.1,0.31c2.98,0.36,5.91-0.04,8.84-0.49c1.64-0.25,3.28-0.6,4.92-0.66c4.63-0.17,8.38,1.52,10.84,5.6
		c1.79,2.98,3.22,6.11,4.06,9.56c-8.64,3.45-17.05,6.87-25.51,10.16c-5.1,1.98-10.19,4.07-15.44,5.56
		c-6.52,1.86-13.22,2.73-20.08,2.66c-7.07-0.08-14.15,0.41-21.23,0.65c-4.55,0.16-9.1,0.42-13.65,0.46
		c-7.08,0.07-14.16,0.15-21.23-0.07c-7.29-0.22-14.57-0.7-21.84-1.28c-2.19-0.18-4.34-1.01-6.45-1.72
		c-0.64-0.21-1.47-0.98-1.54-1.57c-0.51-4.58-0.85-9.17-1.27-14.01c2.28,0.16,4.34,0.17,6.36,0.47c6.59,0.99,13.23,1.11,19.87,1.32
		c3.02,0.1,6.02,0.61,9.03,0.95c3.3,0.37,6.59,0.75,9.89,1.14c5.44,0.64,10.91,1.11,16.31,1.97c6.97,1.11,13.82,0.82,20.55-1.21
		c1.53-0.46,2.97-1.45,4.26-2.45c0.98-0.77,1.55-1.81,1.49-3.35c-0.07-1.75,0.45-3.57,1.02-5.26c0.26-0.78,1.19-1.43,1.96-1.91
		C432.53,670.83,436.04,668.96,439.35,666.77z M439.18,663.93c-1.48,0.86-2.78,1.6-4.06,2.36c-1.85,1.11-3.7,2.22-5.53,3.36
		c-1.74,1.08-3.22,2.41-4,4.51c-1.27-0.28-2.5-0.55-3.93-0.86c0.48-0.49,0.89-0.95,1.35-1.35c3.74-3.3,7.92-5.95,12.31-8.29
		C436.61,662.96,437.71,662.78,439.18,663.93z M412.97,675.31c4.02-3.95,8.01-7.92,12.05-11.84c2.19-2.12,4.92-3.23,7.86-3.83
		c1.02-0.21,1.92-0.16,1.97,1.36c-0.21,0.15-0.47,0.4-0.77,0.55c-7.11,3.47-13.17,8.3-18.31,14.3c-0.33,0.38-0.66,0.78-1.04,1.1
		c-1.05,0.9-1.92,0.76-3.05-0.46C412.11,676.09,412.55,675.71,412.97,675.31z M427.32,654.78c0.19,0.05,0.28,0.44,0.5,0.81
		c-0.56,0.22-1,0.44-1.47,0.55c-6.06,1.46-11.49,4.22-16.44,7.96c-2.53,1.91-4.98,3.95-7.42,5.98c-0.66,0.55-1.2,1.24-1.74,1.92
		c-0.47,0.59-0.28,1.07,0.57,1.39c1.03-0.87,2.11-1.78,3.16-2.67c2.23,1.23,4.34,2.4,6.61,3.65c0.13,0.55,0.32,1.36,0.52,2.16
		c-0.31,0.23-0.62,0.47-0.92,0.7c1.29,2.18,3.09,2.62,5.07,1.17c1.16-0.85,2.17-1.91,3.24-2.87c0.59-0.53,1.19-1.04,1.84-1.61
		c0.66,0.39,1.27,0.89,1.96,1.11c0.66,0.21,1.42,0.13,2.36,0.2c-0.43,1.2-1.17,2.32-1.15,3.42c0.05,2.7-1.82,3.66-3.76,4.35
		c-6,2.12-12.21,2.87-18.54,1.93c-7.07-1.05-14.14-1.92-21.28-2.37c-3.09-0.2-6.13-0.94-9.22-1.21c-4.31-0.38-8.64-0.58-12.96-0.83
		c-5.19-0.3-10.37-0.59-15.56-0.85c-1.36-0.07-2.72-0.01-4.4-0.01c-0.16-2.8-0.31-5.49-0.46-8.33c1.22,0,2.2-0.02,3.18,0
		c5.85,0.13,11.7,0.5,17.54,0.31c3.49-0.12,6.97-1.02,10.42-1.74c6.97-1.47,13.92-3.05,20.87-4.63c1.95-0.44,3.87-1.05,5.84-1.59
		c0.94,1.22,1.93,2.51,3.03,3.93c-1.61,1.09-1.05,2.73-0.79,4.29c0.12,0.69,0.71,1.17,2.05,1.89c-0.19-1.22-0.37-2.38-0.57-3.66
		c1.11-1.01,2.17-2.1,3.34-3.04c6.16-4.94,12.87-9.03,19.87-12.67C424.34,653.5,425.79,654.36,427.32,654.78z M396.34,661.44
		c6.16-1.1,11.83-2.87,17.32-5.2c-4.37,3.09-8.74,6.19-13.29,9.41C398.82,664.8,397.76,663.21,396.34,661.44z M416.76,654.67
		c-0.03-0.06-0.07-0.11-0.1-0.17c1.86-1.2,3.68-2.49,5.62-3.56c0.49-0.27,1.35,0.13,2.48,0.28
		C421.75,652.52,419.25,653.6,416.76,654.67z M422.02,644.53c0.42,0.46,0.93,1.03,1.65,1.83c-1.06,0.88-1.99,1.76-3.02,2.49
		c-6.24,4.44-13.07,7.59-20.49,9.5c-2.12,0.55-4.22,0.91-6.41,0.79c-0.36-0.02-0.77,0.08-1.07-0.06c-0.43-0.19-1.12-0.6-1.09-0.82
		c0.08-0.47,0.46-1.02,0.88-1.27c0.53-0.31,1.22-0.38,1.85-0.5c2.41-0.45,4.88-0.69,7.21-1.38c2.89-0.85,5.76-1.88,8.48-3.17
		c2.92-1.39,5.68-3.15,8.46-4.83C419.69,646.39,420.78,645.45,422.02,644.53z M419.89,642.54c-0.04,0.65-0.09,1.29-0.12,1.81
		c-2.06,1.04-4.03,2.02-5.99,3.04c-4.3,2.22-8.61,4.39-13.34,5.56c-0.34,0.09-0.7,0.12-1.02,0.16c-0.78-0.91-1.42-1.88-2.27-2.6
		c-0.8-0.67-1.83-1.08-2.81-1.63c3.62-5.88,7.9-10.82,15.08-12.06c1.76-0.3,3.63-0.45,5.37-0.19
		C417.75,637.1,420.11,639.02,419.89,642.54z M413.36,633.43c-10.54,0.37-17.49,5.7-21.52,15.33c-4.41,0.99-8.88,2.11-13.4,2.99
		c-7.71,1.5-15.45,2.86-23.18,4.27c-0.35,0.06-0.72,0.07-1.08,0.09c-6.58,0.32-13.14,0.01-19.65-0.95
		c-1.17-0.17-2.28-0.75-3.53-1.18c0.76-1.84,1.38-3.45,2.09-5c0.59-1.29,0.54-2.52-0.1-3.73c-0.77-1.47-1.67-2.87-2.43-4.34
		c-1.12-2.17-2.17-4.37-3.42-6.91c1.51,0.22,2.62,0.33,3.71,0.55c5.42,1.09,10.85,1.44,16.37,0.82c3.8-0.43,7.63-0.52,11.43-0.96
		c4.65-0.53,9.29-1.22,13.92-1.91c6.06-0.91,12.1-1.95,18.16-2.83c8.14-1.18,16.22-2.6,24.13-4.92c0.53-0.15,1.08-0.24,1.98-0.44
		C415.61,627.56,414.49,630.49,413.36,633.43z M425.36,595.24c-1.42,5.44-2.86,10.89-4.32,16.32c-0.63,2.37-1.32,4.72-2,7.07
		c-0.31,1.1-0.92,1.66-2.15,2.05c-10.62,3.41-21.57,5.19-32.54,6.88c-8.48,1.3-16.94,2.74-25.42,4.03
		c-3.35,0.51-6.74,0.77-10.11,1.09c-2.08,0.2-4.18,0.31-6.26,0.45c-4.43,0.28-8.79-0.37-13.15-1c-0.98-0.14-1.97-0.14-2.97-0.21
		c-4.57-7.68-9.09-15.29-13.72-23.06c1.54,0.15,2.9,0.19,4.24,0.42c6.91,1.14,13.85,0.5,20.76,0.24c4.89-0.19,9.75-0.99,14.63-1.48
		c3.37-0.34,6.76-0.6,10.13-0.95c4.45-0.46,8.89-0.97,13.34-1.45c14.1-1.55,27.67-5.54,41.36-8.98c2.77-0.7,5.43-1.86,8.31-2.87
		C425.45,594.22,425.48,594.75,425.36,595.24z M436.39,518.66c-0.4,0.65-0.82,1.41-0.85,2.14c-0.19,4.25-0.22,8.51-0.41,12.76
		c-0.51,11.49-1.72,22.9-3.92,34.19c-1.38,7.08-3.01,14.12-4.53,21.17c-0.04,0.21-0.17,0.4-0.24,0.56
		c-5.03,1.34-10.01,2.81-15.05,3.98c-11.65,2.71-23.3,5.43-35.02,7.82c-6.35,1.29-12.84,1.9-19.26,2.82
		c-3.07,0.44-6.14,0.88-9.21,1.35c-5.43,0.83-10.9,1.26-16.39,1.31c-3.9,0.04-7.81,0.03-11.71,0c-3.06-0.02-5.99-0.73-8.91-1.6
		c-0.9-0.27-1.5-0.73-2.02-1.47c-1.46-2.06-2.93-4.13-4.47-6.13c-1.09-1.42-2.31-2.73-3.6-4.23c1.58-1.15,3.22-2.41,4.92-3.58
		c4.72-3.23,9.72-5.93,14.87-8.43c4.33-2.1,8.51-4.52,12.75-6.8c-0.05-0.15-0.1-0.29-0.16-0.44c-1.69,0.38-3.38,0.76-5.07,1.13
		c-11.65,2.53-21.46,8.64-30.73,15.8c-5.47,4.22-10.27,9.11-14.7,14.37c-0.95,1.13-1.88,1.76-3.4,1.82
		c-2.01,0.08-4.01,0.48-6.01,0.76c-5.57,0.77-11.11-0.09-16.65-0.4c-8.29-0.46-16.57-1.08-24.86-1.67
		c-6.27-0.45-12.54-0.88-18.79-1.46c-8.12-0.75-16.22-1.69-24.35-2.44c-13.04-1.2-25.73-4.24-38.47-7.09
		c-1.42-0.32-2.1-1.09-2.69-2.39c-6.04-13.23-9.99-27.21-14.79-40.89c-4.2-11.96-6.78-24.32-9.48-36.66
		c-1.27-5.77-2.28-11.6-3.35-17.14c3.7-3.03,7.14-5.84,10.79-8.82c-0.13,0.72-0.2,1.25-0.33,1.77c-0.98,3.77-1.98,7.54-2.95,11.31
		c-0.14,0.56-0.25,1.13-0.32,1.7c-0.33,3.03,1.73,4.81,4.63,3.95c2.56-0.75,5.09-1.61,7.63-2.42c4.07-1.3,7.55-3.56,10.65-6.46
		c1.26-1.18,2.54-2.35,3.79-3.51c2.94,1.24,5.79,2.43,8.98,3.78c0,1-0.04,2.28,0.01,3.56c0.07,1.85,0.36,2.17,2.23,1.93
		c1.41-0.18,2.77-0.73,4.18-0.99c0.73-0.14,1.6-0.23,2.26,0.03c6.11,2.38,12.18,4.84,18.27,7.28c0.27,0.11,0.52,0.24,0.81,0.38
		c0.04,1.89-0.99,3.35-1.88,4.89c-10.13,17.67-20.25,35.35-30.36,53.03c-1.47,2.57-2.95,5.14-4.4,7.72
		c-0.31,0.56-0.79,1.24-0.69,1.77c0.56,3,0.39,6.18,2.63,8.75c1.96,2.24,3.84,4.42,6.56,5.86c3.06,1.61,9.6,3.93,12.95,4.06
		c1.14,0.04,2.31-0.09,3.43-0.32c2.01-0.41,2.41-1.17,1.95-2.9c0.9-1.14,1.66-1.9,2.18-2.8c11.22-19.46,22.42-38.94,33.6-58.42
		c0.77-1.34,1.54-2.51,3.27-2.78c0.46-0.07,0.87-0.84,1.2-1.35c1.52-2.35,3-4.73,4.51-7.11c4.19,1.18,8.14,2.27,12.07,3.42
		c8.32,2.43,16.82,4.03,25.33,5.54c7.66,1.36,15.39,2.35,23.09,3.52c3.92,0.59,7.84,1.2,11.76,1.81c0.35,0.06,0.68,0.23,0.84,0.28
		c0.53,2.13,1.02,4.14,1.54,6.13c0.33,1.25,1.13,2.06,2.27,2.73c4.67,2.78,9.82,4.12,15.09,5.04c2.91,0.51,5.83,1.04,8.77,1.33
		c10.7,1.04,20.96-1.13,31.01-4.55c2.11-0.72,4.14-1.66,6.18-2.56c1.03-0.45,1.74-1.22,2.04-2.38c0.14-0.54,0.52-1.01,0.8-1.51
		c0.53-0.92,1.18-1.79,1.59-2.76c0.45-1.06,0.68-2.2,1.04-3.41c8.3-0.22,16.14-2.69,23.81-5.53c10.07-3.73,20-7.84,29.87-12.06
		c4.56-1.95,8.84-4.55,13.43-6.94c1.08,1.52,2.16,3.03,3.31,4.65C438.25,515.93,437.27,517.26,436.39,518.66z M303.27,492.3
		c-0.02-0.71,0-1.42,0-2.11c21.64,1.21,43.14,1.42,65.01-1.28c0.14,0.54,0.48,1.22,0.45,1.89c-0.29,8.59-0.62,17.18-0.95,25.76
		c0,0.12-0.1,0.24-0.15,0.36c-2.4-2.55-2.4-2.55-7.72-2.43c-0.06-0.12-0.2-0.26-0.17-0.34c1.35-4.17,0.98-8.4,0.43-12.64
		c-0.15-1.14-0.18-2.31-0.49-3.4c-0.46-1.63-0.96-1.85-2.7-1.69c-6.26,0.56-12.5,1.25-18.77,1.59c-3.66,0.2-7.36-0.15-11.04-0.34
		c-2.45-0.12-4.89-0.46-7.34-0.58c-1.56-0.07-2.99-0.43-4.31-1.24c-0.78-0.48-1.56-0.56-2.47-0.27c-1.42,0.46-1.81,0.79-1.71,2.29
		c0.13,2.02,0.54,4.02,0.59,6.03c0.14,5.12,0.27,10.25,0.18,15.37c-0.07,3.89-0.31,7.8-0.77,11.67c-0.35,2.99,1.01,4.91,3.31,6.23
		c4.01,2.31,8.27,4.03,12.89,4.83c10.31,1.78,20.05-0.5,29.63-4.02c1.63-0.6,1.74-0.97,1.57-2.73c-0.05-0.49-0.03-1.04,0.15-1.48
		c1.01-2.46,1.31-5.01,1.11-7.69c2.6-1.19,5.53-1.81,6.91-4.76c0.08,3.37-0.25,6.63-1.04,9.83c-0.7,2.87-1.63,5.68-2.42,8.53
		c-0.27,0.98-0.75,1.64-1.76,1.96c-4.18,1.33-8.31,2.85-12.54,4.03c-7.21,2.01-14.6,3-22.06,2.37c-7.91-0.67-15.77-1.83-22.95-5.62
		c-1.85-0.98-2.67-2.4-2.38-4.53c0.29-2.14,0.84-4.26,1-6.41c0.42-5.98,0.9-11.96,0.96-17.95
		C303.79,506.46,303.44,499.38,303.27,492.3z M347.6,515.13c2.31-2.09,6.57-2.41,9.38-0.58c-0.78,0.21-1.47,0.31-2.08,0.59
		c-1.17,0.52-2.44,0.96-3.43,1.75c-3.12,2.49-2.44,6.81,1.24,8.35c0.79,0.33,1.63,0.54,2.6,0.86c-2.68,2.96-5.72,2-7.58,0.33
		C344.06,523.12,344,518.38,347.6,515.13z M343.26,507.92c-9.73,1.35-18.61,5-27.04,9.88c-0.11,0.06-0.26,0.04-0.63,0.08
		c0-5.32,0-10.63,0-16.16c13.74,1,27.47,1.27,41.35-1.86c0,3.72,0,7.27,0,10.97c-0.63-0.13-1.38-0.29-2.24-0.47
		c-0.12-1.5-1.18-1.89-2.44-2.29C349.24,507.13,346.27,507.5,343.26,507.92z M352.96,522.75c-0.82-2.52-0.02-4.07,2.5-4.58
		c1.47-0.3,2.99-0.32,4.49-0.45c0.93-0.08,1.86-0.15,3.02-0.24c0.17,1.25,0.35,2.56,0.55,3.95
		C359.96,523.37,356.57,524.07,352.96,522.75z M413.96,496.51c-7.31-0.35-14.53,0.97-21.68,2.66c-7.17,1.69-14.05,4.23-20.86,8.12
		c0.15-2.78,0.28-5.14,0.42-7.59c2.54-0.35,5.02-0.68,7.49-1.06c0.92-0.14,1.85-0.31,2.74-0.58c10.9-3.29,21.85-6.48,32.21-11.24
		c6.94-3.19,13.65-6.86,20.45-10.36c0.98-0.51,1.84-1.24,3.15-2.14c0.23,2.22,0.41,3.96,0.61,5.89c-2.26,0.04-3.2,1.71-4.32,3.19
		c-2,2.64-4.04,5.24-6.04,7.83C422.57,488.77,416.86,490.63,413.96,496.51z M427.77,499.13c-0.01,3.18-2.51,5.84-5.64,6.01
		c-2.93,0.16-5.46-2.08-5.89-5.21c-0.34-2.46,2.8-7.25,4.91-7.17c1.52,0.06,3.27,0.32,4.46,1.16c1.46,1.03,2.07,2.9,2.16,4.78
		C427.78,498.84,427.77,498.98,427.77,499.13z M396.18,516.45c-2.72,3.18-7.29,2.94-9.6-0.53c-0.94-1.42-1.38-3-1.38-4.7
		c-0.02-2.56,1.12-4.39,3.45-5.47c1.36-0.63,2.7-1.34,4.07-1.94c1.22-0.54,2.22-0.08,3.09,0.83
		C397.96,506.86,399.26,512.84,396.18,516.45z M452.06,468.97c-2.53,2.04-5.1,4.04-7.5,6.22c-0.66,0.6-1.14,1.76-1.14,2.66
		c0,5.95-1.44,11.73-2,17.61c-0.32,3.3-0.93,6.56-1.27,9.86c-0.08,0.77,0.33,1.68,0.75,2.38c1.34,2.22,2.79,4.37,4.25,6.62
		c-0.29,0.47-0.48,0.94-0.8,1.29c-1.82,1.99-2.61,4.43-3.12,7c-0.3,1.48-0.63,2.96-0.98,4.44c-0.09,0.39-0.34,0.74-0.6,1.3
		c0-2.41-0.04-4.56,0.03-6.71c0.02-0.52,0.36-1.07,0.65-1.54c0.76-1.23,1.58-2.41,2.38-3.62c1.03-1.57,1.01-3.06-0.19-4.58
		c-1.2-1.53-2.23-3.2-3.42-4.74c-0.61-0.79-0.58-1.47-0.33-2.39c0.52-1.94,0.94-3.92,1.21-5.9c0.54-4,1.03-8.01,1.39-12.03
		c0.26-2.95,0.27-5.91,0.4-8.87c0.08-1.8,0.14-3.6,0.29-5.39c0.04-0.44,0.33-0.93,0.64-1.26c0.73-0.79,1.54-1.52,2.33-2.26
		c2.22-2.05,4.44-4.09,6.8-6.26c1.63,1.27,1.63,1.27,2.21,4.85C453.43,468.02,452.7,468.44,452.06,468.97z M457.18,462.19
		c-1.07-0.99-2.06-1.92-3.14-2.92c0.19-0.33,0.43-0.74,0.7-1.22C456.36,459,456.95,460.43,457.18,462.19z M439.22,432.5
		c1.12,0.42,2.02,0.84,2.97,1.09c0.97,0.26,1.99,0.34,3.11,0.52c0.64,1.57,0.3,3.22,0.08,4.82c-0.33,2.43,0.05,3.41,2.24,4.54
		c1.94,1,3.84,2.02,5.25,3.74c0.64,0.78,1.22,1.59,1.86,2.42c-2.19,3.44-4.31,6.78-6.46,10.11c-0.43,0.66-0.92,1.31-1.49,1.86
		c-4.6,4.4-9.59,8.23-15.17,11.4c-5.85,3.32-11.8,6.41-17.89,9.21c-11.67,5.38-23.75,9.69-36.24,12.77
		c-1.74,0.43-3.52,0.66-5.58,1.03c0.14-3.47,0.69-6.85-0.58-10.19c12.6-3.57,24.16-9.23,35.95-14.4
		c-7.18,5.47-14.73,10.31-22.94,14.12c0.4,0,0.83,0.08,1.21-0.01c3.43-0.85,6.85-1.72,10.26-2.63c0.83-0.22,1.65-0.55,2.4-0.98
		c7.22-4.07,13.94-8.78,19.35-15.16c0.47-0.55,0.98-1.09,1.32-1.72c0.4-0.73,0.49-1.59-0.25-2.18c-0.75-0.6-1.55-0.38-2.08,0.35
		c-0.89,1.22-2.14,1.39-3.51,1.74c-2.57,0.64-5.09,1.6-7.53,2.65c-8.61,3.7-17.11,7.68-25.79,11.21c-9.06,3.68-18.58,5.7-28.29,6.89
		c-10.92,1.33-21.89,1.86-32.87,1.59c-7.63-0.19-15.29-0.56-22.8-2.29c-1.68-0.39-3.43-0.47-5.15-0.66
		c-0.66-0.07-1.37-0.07-1.63,0.72c-0.28,0.86,0.02,1.55,0.84,2c2.19,1.2,4.62,1.58,7.03,2.01c0.91,0.16,1.83,0.32,2.81,0.49
		c0.16,2.71,0.31,5.35,0.46,7.96c-4.56,1.11-45.8-6.21-55.23-9.76c1.64-4.4,2.12-9.02,2.34-13.68c0.03-0.7,0.1-1.48,0.42-2.09
		c2.87-5.59,5.79-11.14,8.71-16.7c0.13-0.25,0.32-0.48,0.49-0.72c4.56,0.7,9.1,1.38,13.65,2.09c5.42,0.84,10.86,1.42,16.35,1.69
		c11.56,0.58,23.13,0.58,34.69,0.24c5.84-0.18,11.68-0.71,17.51-1.1c4.39-0.29,8.8-0.53,13.18-0.95c5.89-0.57,11.77-1.22,17.64-1.97
		c14.41-1.83,27.98-6.8,41.67-11.28c5.28-1.73,10.49-3.56,15.47-6.1c3-1.53,6.31-2.44,9.48-3.63
		C437.43,433.2,438.36,432.83,439.22,432.5z M436.87,429.69c-0.44,0.16-0.87,0.35-1.33,0.49c-4.54,1.44-8.94,3.19-13.29,5.15
		c-4.32,1.94-8.88,3.38-13.38,4.9c-8.95,3.01-17.89,6.02-27.07,8.26c-5.62,1.37-11.31,2.3-17.04,2.88
		c-7.75,0.79-15.52,1.52-23.29,2.08c-6.99,0.5-13.99,0.83-20.99,1.06c-6.72,0.22-13.44,0.22-20.16,0.29
		c-1.28,0.01-2.55-0.14-4.15-0.24c4.08-4.74,7.36-9.44,10.14-14.77c-0.13-0.22-0.3-0.71-0.63-1.03c-1.48-1.38-2.96-2.77-4.53-4.03
		c-5.62-4.54-11.24-9.08-16.95-13.51c-2.56-1.99-5.32-3.73-7.99-5.59c-0.58-0.4-1.15-0.81-2.2-1.55c1.03,0,1.55-0.04,2.07,0.01
		c6.18,0.56,12.35,1.16,18.54,1.7c6.62,0.57,13.23,1.18,19.86,1.57c7.71,0.45,15.44,0.81,23.16,0.97
		c7.37,0.15,14.75,0.13,22.12-0.08c11.19-0.32,22.3-1.45,33.31-3.62c8.35-1.64,16.7-3.23,24.81-5.84c5-1.61,9.93-3.47,14.89-5.22
		c0.33-0.12,0.66-0.24,1.26-0.45C435.57,411.94,435.61,420.81,436.87,429.69z M424.97,359.66c3.12,8.93,5.83,17.98,6.63,27.5
		c0.29,3.44,1.05,6.84,1.59,10.27c0.08,0.49,0.12,0.99,0.19,1.61c-0.59,0.27-1.16,0.54-1.74,0.78c-11.18,4.57-22.7,7.99-34.56,10.29
		c-5.66,1.1-11.33,2.26-17.05,2.96c-6.3,0.77-12.66,1.12-19,1.52c-12,0.75-24,0.12-36-0.16c-5.05-0.11-10.09-0.7-15.13-1.07
		c-4.83-0.35-9.66-0.66-14.48-1.05c-4.1-0.33-8.19-0.75-12.29-1.1c-4.46-0.38-8.92-0.75-13.39-1.05c-1.34-0.09-2.5-0.45-3.64-1.18
		c-6.08-3.89-12.06-7.98-18.34-11.51c-11.36-6.38-23.34-11.35-36.08-14.3c-2.72-0.63-5.56-0.81-8.36-1.08
		c-2.65-0.26-3.06,0.06-4.39,2.83c6.9,5.54,14.35,10.51,20.61,17.04c-1.69-0.56-3.41-1.05-5.07-1.69c-4.52-1.73-9.15-3.1-13.91-3.98
		c-1.24-0.23-1.94-0.81-2.52-1.98c-4.78-9.72-9.81-19.32-15.63-28.69c0.5-0.99,1.11-2.12,1.66-3.28c0.37-0.78,0.75-1.58,0.96-2.41
		c0.49-1.91-0.3-3.29-2.24-3.76c-1.4-0.34-2.84-0.46-4.27-0.67c-0.61-0.09-1.23-0.17-1.89-0.47c4.78-3.12,9.59-6.04,15.31-7.58
		c0.42,1.63,1.52,1.8,2.98,1.55c3.05-0.53,5.77-1.82,8.37-3.4c6.45-3.91,11.2-9.52,15.35-15.67c0.79-1.17,1.36-2.53,1.28-4.25
		c-1.78,0.62-2.99,1.79-4.12,3.03c-1.91,2.08-3.76,4.2-5.66,6.28c-2.9,3.16-6.15,5.91-9.82,8.13c-0.66,0.4-1.36,0.74-2.25,0.87
		c0.18-0.24,0.35-0.5,0.55-0.73c4.92-5.64,9.22-11.66,11.74-18.82c0.79-2.24,1.89-4.37,2.84-6.55c0.34-0.77,0.66-1.55,0.68-2.52
		c-0.42,0.6-0.85,1.2-1.27,1.8c-4.86,6.91-9.71,13.83-14.59,20.73c-0.62,0.88-1.35,1.69-2.07,2.51c-1.64,1.86-3.49,3.23-5.98,4.03
		c-6.31,2.02-11.94,5.42-17.23,9.38c-0.34,0.26-0.68,0.52-0.97,0.74c-18.33-5.47-37-7.7-56.03-7.14c-0.02-0.16-0.04-0.33-0.06-0.49
		c1.11-0.39,2.21-0.83,3.34-1.15c7.21-2.03,14.48-2.63,21.79-0.69c1.8,0.47,3.51,1.3,5.23,2.03c1.4,0.6,2.81,1.05,4.84,0.96
		c-1.69-1.95-3.08-3.62-5.03-4.75c-3.4-1.97-7.18-2.7-11-2.91c-8.59-0.48-16.82,1.13-24.49,5.15c-1.13,0.59-2.19,1.41-3.11,2.29
		c-0.89,0.85-0.93,1.87-0.34,2.53c0.7,0.78,1.44,0.48,2.34,0.25c1.29-0.33,2.69-0.35,4.03-0.3c6.14,0.24,12.28,0.39,18.4,0.87
		c5.82,0.46,11.63,1.2,17.41,1.98c4.78,0.64,9.52,1.52,14.3,2.65c-1.55,0.17-3.09,0.37-4.65,0.52c-6.47,0.61-12.93,1.31-19.21,3.04
		c-6.18,1.7-12.34,3.51-18.48,5.36c-0.85,0.25-1.61,0.9-2.31,1.48c-0.21,0.17-0.22,0.87-0.04,1.13c0.18,0.25,0.76,0.42,1.09,0.34
		c7.27-1.79,14.5-3.77,21.8-5.39c4.42-0.98,8.95-1.6,13.46-2.02c5.39-0.5,10.81-0.6,16.22-0.88c1.7-0.09,3.36,0.3,5.13-0.24
		c1.29-0.39,2.9,0.28,4.53,0.51c-0.8,2.05-1.43,3.87-2.23,5.61c-0.41,0.91-0.35,1.63,0.19,2.42c1.02,1.49,1.99,3,2.98,4.51
		c0.47,0.72,0.92,1.45,1.39,2.2c-0.97,1.52-2.43,2.14-3.89,2.71c-10.94,4.27-21.72,8.99-33.2,11.76c-3.08,0.74-6.12,1.69-9.1,2.78
		c-6.64,2.43-13.58,3.25-20.51,4.16c-5.72,0.75-11.46,1.4-17.19,2.08c-4.89,0.58-9.8,0.72-14.72,0.51
		c-1.48-0.06-2.56-0.58-3.37-1.91c-5.33-8.68-10.9-17.22-16-26.02c-3.33-5.75-5.64-12-6.93-18.59c-0.19-0.98,0.01-1.62,0.43-2.39
		c8.12-15.03,18.49-28.44,29.52-41.4c7.56-8.88,15.5-17.41,24.3-25.04c13.17-11.42,27.16-21.79,42.48-30.24
		c4.78-2.64,9.86-4.41,15.19-5.53c2.54-0.54,4.9-0.37,7.29,0.96c11.14,6.19,20.49,14.33,27.17,25.23c2.28,3.73,3.78,7.93,5.63,11.92
		c0.3,0.65,0.51,1.36,0.85,1.98c0.33,0.61,0.91,1.02,1.62,0.71c0.78-0.33,0.87-0.91,0.69-1.77c-1.05-4.86-3.16-9.28-5.45-13.63
		c-1.97-3.73-4.48-7.07-7.25-10.24c-0.45-0.52-0.87-1.06-1.3-1.59c1.77,0.65,3.61,0.97,4.47,2.96c0.4,0.94,1.39,1.64,2.17,2.39
		c8.49,8.18,13.97,18.12,17.21,29.38c0.65,2.28,1.2,4.59,1.82,6.88c0.36,1.33,0.09,2.57-0.43,3.79c-0.76,1.77-0.72,3.33,0.45,5.08
		c1.52,2.28,2.35,4.78,1.77,7.76c-1.17,5.94-1.98,11.96-2.93,17.94c-0.07,0.43-0.14,0.85-0.2,1.28c-0.17,1.14-0.34,2.29-0.56,3.84
		c0.32,0.13,0.98,0.6,1.67,0.66c3.81,0.33,7.62,0.65,11.44,0.8c3.83,0.15,7.66,0.07,11.5,0.13c2.6,0.04,5.2,0.13,7.8,0.23
		c2.3,0.09,3.46-0.76,4.15-2.93c1.29-4.1,1.16-8.27,0.7-12.46c-0.16-1.43-0.43-2.85-0.37-4.49c0.39,0.5,0.82,0.98,1.16,1.51
		c2.91,4.65,5.81,9.32,8.7,13.98c0.34,0.55,0.66,1.12,1.01,1.67c1.31,2.07,2.46,2.41,4.44,0.89c1.7-1.31,3.41-2.77,4.66-4.49
		c2.5-3.44,4.83-7.02,6.98-10.69c1.89-3.22,2.32-6.95,3.07-10.56c1-4.8,2.03-9.6,3.09-14.62c1.27,0.63,2.17,0.11,2.92-0.71
		c1.57-1.72,3.69-2.46,5.79-3.36c0.86,0.8,1.69,1.57,2.52,2.34c-0.05,0.07-0.1,0.15-0.14,0.22c-0.39-0.11-0.77-0.25-1.16-0.34
		c-0.62-0.14-1.41-0.46-1.61,0.42c-0.08,0.33,0.48,0.95,0.89,1.22c1.25,0.85,2.59,1.56,3.87,2.38c1.45,0.93,2.85,1.93,4.54,2.69
		c-0.25-0.46-0.51-0.91-0.76-1.37c0.09-0.07,0.18-0.14,0.27-0.21c1.11,0.98,2.23,1.97,3.34,2.95c0.1-0.06,0.2-0.13,0.3-0.19
		c-0.65-1.04-1.29-2.07-2-3.21c1.38,0.21,2.21,2.51,3.83,0.93c1.03,0.94,2.21,1.72,2.99,2.79c0.72,1.01,1.02,2.32,1.55,3.63
		c-1.71-0.07-2.88,0.84-4.05,1.83c-5.96,5.1-10.91,10.93-13.75,18.37c-0.84,2.19-0.51,1.9,1.14,3.5c1.77,1.71,3.57,0.75,5.49,1.17
		c-0.23,0.38-0.51,0.68-0.62,1.03c-0.17,0.5-0.47,1.25-0.26,1.52c0.33,0.42,1.08,0.76,1.61,0.71c1.28-0.12,2.53-0.62,3.81-0.71
		c3.31-0.22,6.64-0.59,9.93-0.36c5.61,0.39,11.18,1.28,16.46,3.4c2.61,1.05,5.18,2.19,7.79,3.25c1,0.41,2.01,0.81,3.05,1.07
		c1.64,0.42,1.88,0.29,3.19-1.06c1.19,0.07,1.47,0.9,1.7,1.88c1.37,5.91,2.93,11.77,4.1,17.71c1.15,5.87,1.91,11.82,2.83,17.74
		c0.05,0.35,0.08,0.71,0.06,1.06c-0.08,1.79,0.47,2.33,2.22,2.14c2.37-0.26,3.32-1.5,3.19-3.87c-0.05-0.9,0.32-1.82,0.33-2.73
		c0.01-2.3,0.24-4.66-0.19-6.88c-1.27-6.66-2.8-13.27-4.25-19.9c-0.45-2.04-0.95-4.08-1.47-6.1c-0.33-1.29-0.74-2.56-1.14-3.96
		c3.73-0.51,6.48-3.07,9.5-5.08c4.81-3.2,9.49-6.6,14.23-9.9c0.57-0.4,1.18-0.76,2.14-1.37c0.17,2.78,0.31,5.2,0.46,7.62
		c0.07,1.08,0.11,2.16,0.21,3.23c0.1,0.98,0.51,1.46,1.68,1.45c2.81-0.03,5.63,0.16,8.44,0.23c2.96,0.08,5.93,0.09,8.89,0.23
		c2.53,0.12,4.62-0.82,6.6-2.29c0.09-1.05-1.67-2.31,0.57-3.18c1.39,3.03,2.9,6.05,4.17,9.17C420.73,348.45,423,354,424.97,359.66z
		 M533.39,332.47c-3.75,0.99-7.66,2.24-11.65,3.01c-6.72,1.3-13.5,2.3-20.26,3.39c-0.63,0.1-1.29-0.03-1.94-0.04
		c-0.72-0.01-1.47-0.14-2.16,0.01c-4.27,0.9-8.61,0.72-12.92,1.02c-8,0.56-15.99,1.19-24,1.59c-4.98,0.25-9.98,0.4-14.95,0.15
		c-6.62-0.33-13.23-1.05-19.83-1.73c-1.4-0.14-2.77-0.78-4.1-1.32c-0.45-0.19-0.84-0.75-1.06-1.23c-3.02-6.55-6.01-13.13-9.02-19.72
		c0.52-0.38,1.35-0.68,1.64-1.26c0.32-0.65,0.29-1.55,0.19-2.32c-0.86-6.61-0.74-13.22-0.35-19.86c0.35-6.06,0.36-12.14,0.38-18.21
		c0.01-2.25-1.08-4.29-2-6.29c-1.29-2.81-3.38-5.01-5.69-7.02c-1.11-0.96-2.35-1.84-3.17-3.45c0.87-0.06,1.49-0.13,2.11-0.13
		c3.11-0.01,6.22-0.03,9.33,0.02c1.29,0.02,2.58,0.25,3.87,0.37c0.57,0.06,1.15,0.11,1.73,0.12c2.28,0.04,4.09-0.75,5.02-3.15
		c1.29,0.54,2.46,1.03,3.3,1.38c0.35,1.71,0.53,3.13,0.94,4.48c2.21,7.36,5.73,14.18,8.89,21.14c4.73,10.44,10.63,20.19,17.41,29.41
		c0.93,1.27,2.06,2.41,3.2,3.5c0.32,0.3,1.01,0.2,1.54,0.28c0.03-0.52,0.27-1.15,0.06-1.55c-0.66-1.28-1.41-2.53-2.25-3.7
		c-8.8-12.21-15.31-25.65-21.26-39.39c-0.14-0.33-0.24-0.67-0.35-1.01c-0.01-0.05,0.06-0.12,0.19-0.36c0.53,0.83,1.03,1.57,1.5,2.34
		c7.5,12.24,16.12,23.65,25.82,34.21c3.91,4.26,8.11,8.25,12.19,12.35c0.45,0.46,0.96,0.94,1.53,1.18c0.44,0.18,1.03-0.01,1.56-0.03
		c-0.08-0.46-0.1-0.94-0.27-1.36c-0.13-0.31-0.48-0.53-0.72-0.8c-7.46-8.65-15.34-16.93-22.23-26.06c-1.57-2.08-3.12-4.17-4.66-6.26
		c-0.28-0.38-0.5-0.82-0.9-1.49c28.62,0.91,52.74-9.71,74.37-27.34C533.34,281.66,536.36,306.58,533.39,332.47z"/>
	<path d="M418.04,363.1c-0.43-1.51-0.57-3.18-1.35-4.48c-1.95-3.28-4.17-6.4-6.3-9.56c-0.23-0.34-0.59-0.78-0.94-0.84
		c-0.88-0.14-1.54-0.33-2.03-1.25c-0.33-0.63-1.25-0.77-1.92-0.25c-0.61,0.48-1.19,1.04-1.63,1.67c-0.97,1.41-1.85,2.89-2.9,4.55
		c-1.23-1.63-2.29-3.17-3.49-4.59c-1.45-1.71-2.66-1.45-3.49,0.62c-1.87,4.68-3.75,9.36-5.6,14.05c-0.48,1.2-1.14,2.44,0.3,3.49
		c0.13,0.1,0.15,0.38,0.18,0.58c0.3,1.9,0.3,1.95,2.21,1.82c2.8-0.18,5.61-0.34,8.4-0.69c2.68-0.34,5.52,0.37,8.03-1.16
		c0.06-0.03,0.14-0.04,0.21-0.04c2.2-0.08,4.4-0.17,6.6-0.24c0.79-0.03,1.6,0.04,2.38-0.08c1.74-0.26,2.22-1.18,1.56-2.84
		C418.15,363.63,418.11,363.36,418.04,363.1z M403.52,364.96c-0.38,0.16-0.81,0.25-1.23,0.29c-3.88,0.35-7.76,0.69-11.63,1.03
		c-0.14,0.01-0.28-0.06-0.53-0.11c2.05-4.76,4.09-9.5,6.2-14.39c3.32,4,6.62,7.98,9.92,11.95
		C405.23,364.19,404.39,364.61,403.52,364.96z M409.83,363.75c-0.42-0.02-0.96-0.32-1.22-0.66c-1.95-2.58-3.84-5.21-5.85-7.96
		c1.26-1.94,2.54-3.93,3.96-6.14c0.73,0.63,1.53,1.06,1.95,1.73c2.09,3.36,4.1,6.77,6.09,10.2c0.45,0.78,0.7,1.69,1.17,2.86
		C413.69,363.79,411.76,363.82,409.83,363.75z"/>
	<path d="M301.22,304.49c1.45,1.22,2.87,1.8,4.59,2.08C304.4,304.47,303.1,303.81,301.22,304.49z"/>
	<path d="M290.83,149.34c1.72,1.95,3.59,3.67,6.12,4.69c2.29,0.93,4.26,0.71,6.04-0.85c2.83-2.48,4.5-5.58,4.62-9.43
		c-0.12-1.23-0.29-2.45-0.33-3.67c-0.09-2.47-1.23-4.41-2.9-6.11c-0.5-0.52-1.01-1.03-1.52-1.54c-2.3-2.31-6.35-2.48-8.87-0.36
		c-4.76,3.99-6.24,9.04-4.32,14.98C289.92,147.86,290.28,148.71,290.83,149.34z M293.51,144.87c-0.53,0.23-1.22-0.39-1.24-1.09
		c-0.02-0.96,0.63-0.94,1.31-0.83c0.04,0.01,0.09,0.01,0.13,0.01c0,0.12-0.02,0.25,0.03,0.35
		C294.1,143.91,294.36,144.51,293.51,144.87z M301.16,141.42c0.29-0.69,0.84-1.32,1.42-1.8c0.29-0.24,1-0.27,1.35-0.08
		c0.36,0.19,0.5,0.77,0.88,1.41c-0.59,0.72-1.07,1.51-1.75,2.05c-0.3,0.24-1.16,0.15-1.49-0.12
		C301.24,142.6,301,141.81,301.16,141.42z M301.01,148.6c0.31,0.23,0.62,0.46,1.09,0.81c-0.43,0.35-0.69,0.7-1.02,0.78
		c-0.17,0.04-0.66-0.42-0.64-0.62C300.49,149.23,300.81,148.92,301.01,148.6z M293.02,136.56c0.77-1.03,1.67-1.97,2.58-2.88
		c0.61-0.6,1.42-0.74,2.19-0.31c2.11,1.19,2.77,4.03,1.27,5.95c-1.36,1.75-2.82,3.48-5.33,3.58
		C291.66,141.12,291.36,138.77,293.02,136.56z"/>
	<path d="M362.4,153.72c2.48,1.98,5.55,1.39,7.21-1.32c1.47-2.41,2.01-5.07,2.13-8.02c-0.15-2.75-0.62-5.57-2.24-8.08
		c-0.84-1.29-1.86-2.39-3.39-2.9c-3.36-1.12-6.71,0.59-8.14,4.19c-0.91,2.28-0.9,4.63-0.5,7.02
		C358.08,148.23,359.47,151.39,362.4,153.72z M363.13,147.39c-0.17,0.24-1.02,0.31-1.27,0.11c-0.81-0.67-0.57-1.35,0.43-1.97
		C363.15,145.97,363.77,146.5,363.13,147.39z M366.1,151.69c-0.22-0.33-0.44-0.66-0.65-0.99c0.22-0.13,0.43-0.25,0.65-0.38
		c0.17,0.36,0.34,0.72,0.51,1.09C366.44,151.5,366.27,151.6,366.1,151.69z M367.5,141.51c0.67-0.03,1.46,0.79,1.51,1.57
		c0.07,0.91-0.96,1.95-1.93,1.97c-0.86,0.02-1.13-0.56-1.19-1.25C365.83,142.88,366.81,141.54,367.5,141.51z M359.77,140.83
		c0.67-1.72,1.38-3.47,2.38-5.01c0.79-1.23,2.52-0.86,3.12,0.52c0.22,0.51,0.24,1.11,0.36,1.67c0.03,2.1-1.04,3.58-2.56,4.79
		c-0.7,0.56-1.56,0.83-2.41,0.28C359.87,142.56,359.44,141.68,359.77,140.83z"/>
	<path d="M314.33,219.54c0.29,0.41,0.65,0.78,1.04,1.1c1.36,1.09,2.2,0.81,3.1-1.16c-0.12-0.08-0.3-0.19-0.48-0.3
		c-1.17-0.7-2.13-1.43-1.29-3.05c0.17-0.32-0.2-0.95-0.37-1.41c-0.54-1.49-1.13-2.96-1.65-4.46c-0.14-0.4-0.1-0.86-0.17-1.54
		c2.85,2,5.42,3.82,8.03,5.59c0.24,0.16,0.74,0.18,0.98,0.03c0.23-0.14,0.43-0.61,0.38-0.89c-0.13-0.67-0.42-1.32-0.7-2.15
		c1.47,0.91,2.72,1.72,4,2.46c0.65,0.37,1.48,0.6,1.88-0.25c0.35-0.75-0.06-1.3-0.88-1.65c-0.65-0.28-1.22-0.76-1.76-1.23
		c-1.04-0.89-2.02-1.85-3.06-2.74c-0.62-0.52-1.11-1.58-2.14-1.03c-0.9,0.48-0.44,1.42-0.35,2.17c0.1,0.9,0.28,1.79,0.49,3.07
		c-0.86-0.75-1.48-1.23-2.02-1.78c-1.56-1.61-3.05-3.27-4.63-4.86c-0.47-0.48-1.14-0.76-1.71-1.14c-0.35,0.66-0.85,1.29-1.02,2
		c-0.16,0.67,0.03,1.43,0.07,2.14c0.03,0.41,0.08,0.82,0.12,1.22c-0.08,0.02-0.17,0.04-0.25,0.06c-1.29-2.14-2.58-4.28-4.15-6.89
		c-0.11,0.74-0.2,0.95-0.17,1.15C308.43,209.8,310.98,214.84,314.33,219.54z"/>
	<path d="M292.42,235.29c0,0-0.01,0.01-0.01,0.01c0,0,0,0.01,0,0.01c0,0,0,0,0,0c0,0,0,0,0,0l0.08-0.07
		c-0.16,0.31-0.29,0.64-0.47,0.94c-0.29,0.47-0.86,1.02-0.18,1.45c0.28,0.18,1.08-0.09,1.4-0.4c1.58-1.52,2.04-3.4,1.68-5.8
		C293.98,232.87,293.2,234.08,292.42,235.29z"/>
	<path d="M289.79,234.99c-0.27,0.29-0.23,0.88-0.33,1.34c0.52,0.01,1.1,0.18,1.55,0.01c0.53-0.21,0.95-0.66,1.41-1.03
		c0.23-1.22,0.46-2.44,0.66-3.49C292,232.82,290.85,233.86,289.79,234.99z"/>
	<path d="M451.3,206.53c-1.77,1.02-3.09,2.38-2.72,4.72c0.07,0.43-0.15,0.92-0.24,1.42c2.45-0.53,5.59-2.81,6.91-4.96
		c-0.33-0.11-0.66-0.22-1.17-0.39c1.96-1.3,3.77-2.5,5.58-3.71c-0.08-0.14-0.16-0.28-0.24-0.42
		C456.66,204.18,453.85,205.06,451.3,206.53z"/>
	<path d="M356.42,320.2c-0.23,0.18-0.47,0.74-0.37,0.86c0.22,0.28,0.71,0.62,0.98,0.54c0.5-0.15,1.03-0.49,1.33-0.9
		c0.48-0.66,0.79-1.45,1.16-2.18c-0.12-0.08-0.23-0.17-0.35-0.25C358.24,318.9,357.3,319.51,356.42,320.2z"/>
	<path d="M274.12,515.19c0.04,2.75,2.52,4.97,5.54,4.94c3.19-0.03,5.77-2.17,5.72-4.73c-0.05-2.65-2.72-6.24-4.58-6.18
		C277.55,509.31,274.09,512.41,274.12,515.19z M277.68,514.3c0.52-0.76,1.03-1.53,1.89-2.8c0.91,1.31,1.67,2.16,2.16,3.16
		c0.53,1.08,0.23,1.48-0.91,1.97c-0.98,0.42-1.86,0.21-2.68-0.3C277.39,515.84,277.1,515.15,277.68,514.3z"/>
	<path d="M390.74,505.99c-1.22,1.09-2.45,2.27-3.29,3.64c-0.49,0.79-0.51,2.15-0.21,3.07c0.31,0.96,1.19,1.79,1.97,2.52
		c1.47,1.37,3.07,1.43,4.73,0.29c1.98-1.36,3.07-3.21,2.98-5.37c0-0.51,0.01-0.73,0-0.95c-0.05-1.62-0.62-3-2.13-3.74
		C393.37,504.77,391.89,504.95,390.74,505.99z M393.92,510.26c-0.07,0.22-0.2,0.86-0.47,1.42c-0.67,1.42-1.59,1.69-2.95,0.97
		c-1.24-0.66-1.47-1.45-0.61-2.83c0.39-0.63,1.01-1.2,1.66-1.56C393.29,507.29,394.02,507.81,393.92,510.26z"/>
	<path d="M424.41,494.68c-1.01-0.5-2.12-0.73-3.04,0.04c-1.04,0.88-1.95,1.91-2.85,2.93c-0.97,1.12-0.92,2.38-0.2,3.61
		c0.87,1.48,2.21,2.22,3.93,2.25c2.2,0.04,4.06-1.41,4.55-3.54C427.29,497.81,426.32,495.63,424.41,494.68z M421.94,501.21
		c-0.9-0.14-1.65-0.96-1.61-1.74c0.05-1,1.7-2.73,2.48-2.6c0.88,0.15,1.59,1.26,1.47,2.32
		C424.14,500.44,423.04,501.39,421.94,501.21z"/>
	<g>
		<path class="st5" d="M475.41,170.78c-1.64-1.55-3.55-2.68-5.72-3.38c-0.93-0.3-1.57-0.03-2.01,0.74
			c-0.43,0.75-0.43,1.53,0.14,2.22c0.18,0.22,0.42,0.45,0.67,0.53c1.17,0.37,1.23,1.19,1.08,2.23c-0.25,1.74-0.86,3.14-2.58,3.94
			c-1.6,0.74-2.86,1.91-3.72,3.49c-2.28,4.18-0.02,8.71,4.45,8.89c1.99,0.08,3.17-0.55,4.59-2.32c2.98-3.72,4-8.09,4.18-12.71
			C476.53,173.15,476.44,171.76,475.41,170.78z"/>
		<path class="st5" d="M452.81,170.23c-3.3,0.25-5.46,1.74-5.41,4.35c0.07,2.92,2.34,5.24,5.21,5.25c2.34,0.01,4.16-2.35,4.15-5.38
			C456.76,171.97,455.14,170.25,452.81,170.23z"/>
		<path class="st5" d="M297.79,133.37c-0.77-0.43-1.58-0.3-2.19,0.31c-0.91,0.91-1.8,1.86-2.58,2.88c-1.67,2.21-1.37,4.55,0.71,6.34
			c2.51-0.1,3.97-1.83,5.33-3.58C300.56,137.4,299.9,134.56,297.79,133.37z"/>
		<path class="st5" d="M303.93,139.54c-0.35-0.19-1.05-0.16-1.35,0.08c-0.58,0.48-1.13,1.12-1.42,1.8
			c-0.16,0.38,0.08,1.18,0.41,1.46c0.32,0.27,1.18,0.36,1.49,0.12c0.68-0.54,1.16-1.33,1.75-2.05
			C304.44,140.31,304.29,139.73,303.93,139.54z"/>
		<path class="st5" d="M292.27,143.78c0.02,0.7,0.71,1.32,1.24,1.09c0.85-0.37,0.59-0.97,0.25-1.56c-0.05-0.09-0.04-0.22-0.03-0.35
			c-0.05,0-0.09-0.01-0.13-0.02C292.91,142.84,292.25,142.82,292.27,143.78z"/>
		<path class="st5" d="M293.72,142.96c0.03,0,0.05,0.01,0.08,0.01c0,0-0.02-0.01-0.03-0.03l0.04,0.03
			c-0.03-0.02-0.04-0.05-0.07-0.07c0,0-0.01,0-0.01,0C293.72,142.92,293.72,142.94,293.72,142.96z"/>
		<path class="st5" d="M300.45,149.57c-0.02,0.2,0.47,0.66,0.64,0.62c0.32-0.07,0.59-0.43,1.02-0.78c-0.47-0.35-0.78-0.58-1.09-0.81
			C300.81,148.92,300.49,149.23,300.45,149.57z"/>
		<path class="st5" d="M365.27,136.33c-0.6-1.38-2.33-1.74-3.12-0.52c-1,1.54-1.71,3.29-2.38,5.01c-0.33,0.85,0.1,1.73,0.89,2.25
			c0.84,0.55,1.71,0.27,2.41-0.28c1.52-1.21,2.59-2.7,2.56-4.79C365.52,137.44,365.49,136.84,365.27,136.33z"/>
		<path class="st5" d="M367.5,141.51c-0.7,0.03-1.68,1.37-1.6,2.3c0.06,0.69,0.33,1.27,1.19,1.25c0.96-0.02,1.99-1.07,1.93-1.97
			C368.96,142.3,368.17,141.48,367.5,141.51z"/>
		<path class="st5" d="M362.29,145.53c-1,0.62-1.23,1.3-0.43,1.97c0.25,0.2,1.1,0.13,1.27-0.11
			C363.77,146.5,363.15,145.97,362.29,145.53z"/>
		<path class="st5" d="M365.45,150.7c0.22,0.33,0.44,0.66,0.65,0.99c0.17-0.09,0.34-0.19,0.51-0.28c-0.17-0.36-0.34-0.72-0.51-1.09
			C365.88,150.45,365.66,150.58,365.45,150.7z"/>
	</g>
</g>
</svg>
